<svg width="98" height="106" viewBox="0 0 98 106" fill="none" xmlns="http://www.w3.org/2000/svg">
<path d="M83.36 85.9459C82.75 86.5559 82.15 87.1559 81.54 87.7659C81.52 87.9059 81.48 88.076 81.45 88.0959C81.39 88.146 81.32 88.1659 81.23 88.1559C81.2 88.1559 81.16 88.1759 81.12 88.186C80.8 88.506 80.49 88.8159 80.17 89.1359H79.93C79.87 89.1959 79.81 89.2559 79.75 89.3059C79.72 89.3359 79.69 89.3559 79.66 89.3759C79.62 89.3759 79.58 89.3759 79.54 89.3759C79.42 89.3759 79.3 89.366 79.18 89.396C79.12 89.4559 79.07 89.5159 79.01 89.5659C78.98 89.5859 78.94 89.6059 78.91 89.616C78.14 89.616 77.36 89.616 76.59 89.616C76.55 89.616 76.51 89.626 76.48 89.646C76.39 89.716 76.33 89.836 76.2 89.8559C76.12 89.8559 76.04 89.8559 75.96 89.8559C75.78 89.8559 75.77 89.8559 75.65 89.9959C75.56 90.1059 75.45 90.1059 75.33 90.1059C75.22 90.1659 75.15 90.2559 75.06 90.3359C74.98 90.3359 74.9 90.3359 74.82 90.3359C74.73 90.4159 74.64 90.4959 74.55 90.5859H74.31C74.31 90.5859 74.25 90.646 74.22 90.6759C74.1 90.796 74.06 90.8159 73.8 90.8459L73.37 91.2759C73.27 91.3359 73.14 91.276 73.04 91.366C72.95 91.436 72.9 91.5659 72.75 91.5659C72.71 91.5659 72.67 91.5659 72.63 91.5659C72.59 91.5659 72.56 91.6059 72.53 91.6259C72.47 91.6859 72.41 91.736 72.36 91.796C72.28 91.796 72.2 91.796 72.12 91.796C72.06 91.846 72 91.9059 71.94 91.9559C71.82 92.0659 71.73 92.1959 71.59 92.2759C71.47 92.2759 71.35 92.2659 71.27 92.3859C71.2 92.4859 71.1 92.5459 70.96 92.5259C70.93 92.5259 70.88 92.5359 70.85 92.5659C70.79 92.616 70.74 92.6859 70.67 92.7359C70.61 92.7859 70.53 92.7759 70.44 92.7759C70.41 92.7759 70.37 92.796 70.34 92.826C70.28 92.876 70.22 92.936 70.17 92.9959C70.1 93.0159 70.02 93.0259 69.93 93.0159C69.82 93.0759 69.75 93.1759 69.66 93.256H69.43C69.34 93.336 69.25 93.4259 69.16 93.506C69.08 93.506 69 93.506 68.92 93.506C68.83 93.586 68.76 93.686 68.65 93.7459C68.57 93.7459 68.48 93.7359 68.42 93.7759C68.35 93.8159 68.31 93.8859 68.24 93.9459C68.21 93.9659 68.17 93.9959 68.14 93.9959C68.05 93.9959 67.97 93.9959 67.91 94.0359C67.85 94.086 67.8 94.1559 67.73 94.2059C67.63 94.2759 67.49 94.206 67.4 94.296C67.34 94.3559 67.28 94.406 67.23 94.466C67.19 94.466 67.15 94.4859 67.12 94.4859C67.03 94.466 66.96 94.4859 66.9 94.5559C66.85 94.6159 66.79 94.6759 66.73 94.7359H66.49C66.4 94.8159 66.31 94.9059 66.22 94.9859H65.74C65.59 95.1359 65.45 95.2859 65.3 95.4259C65.24 95.476 65.16 95.476 65.08 95.476C65 95.476 64.95 95.5359 64.89 95.5959C64.78 95.7259 64.77 95.716 64.57 95.716C64.28 95.716 64.28 95.7159 64.23 95.7659C64.17 95.8259 64.11 95.8859 64.06 95.936C63.82 95.966 63.58 95.9459 63.32 95.9559C63.24 96.0359 63.15 96.1159 63.06 96.1959H62.58C62.58 96.1959 62.52 96.256 62.49 96.2759C62.43 96.326 62.37 96.3859 62.31 96.436C62.23 96.436 62.15 96.4359 62.07 96.4459C61.98 96.5359 61.9 96.616 61.81 96.7059C61.59 96.9259 61.59 96.9259 61.53 96.9259C61.45 96.9259 61.37 96.9259 61.29 96.9259C61.1 96.9259 61.1 96.9259 60.98 97.0559C60.92 97.1259 60.86 97.1759 60.78 97.1659C60.58 97.1359 60.5 97.296 60.38 97.396C60.31 97.4159 60.23 97.4159 60.14 97.4159C60.08 97.4559 60.02 97.506 59.96 97.576C59.93 97.6059 59.9 97.6359 59.87 97.6659H59.63C59.54 97.7459 59.45 97.8359 59.36 97.9159H58.88C58.79 98.0059 58.71 98.1059 58.6 98.1559C58.52 98.1559 58.44 98.1559 58.36 98.1559C58.12 98.1559 58.15 98.1559 58.04 98.2759C57.98 98.3359 57.92 98.4059 57.85 98.4059C57.76 98.4059 57.68 98.4059 57.62 98.4559C57.47 98.5959 57.33 98.7459 57.19 98.8859C57.11 98.8859 57.03 98.8859 56.95 98.896C56.89 98.946 56.83 98.9959 56.77 99.0559C56.74 99.0859 56.71 99.116 56.68 99.146C56.6 99.146 56.52 99.146 56.44 99.146C56.41 99.1759 56.38 99.2059 56.35 99.2359C56.29 99.2859 56.23 99.3459 56.17 99.396C56.09 99.396 56.01 99.3959 55.93 99.4059C55.84 99.4859 55.77 99.5859 55.66 99.6359H55.42C55.42 99.6359 55.34 99.6359 55.3 99.6359C55.26 99.6359 55.22 99.6359 55.19 99.6659C55.1 99.7359 55.04 99.8559 54.91 99.8759C54.83 99.8859 54.75 99.8759 54.67 99.8759C54.49 99.8759 54.48 99.876 54.36 100.006C54.27 100.116 54.16 100.126 54.04 100.116C53.93 100.166 53.86 100.266 53.77 100.346C53.69 100.346 53.61 100.346 53.53 100.356C53.47 100.406 53.41 100.466 53.35 100.516C53.32 100.546 53.29 100.576 53.27 100.606H53.02C52.93 100.686 52.84 100.776 52.76 100.846C52.55 100.846 52.34 100.846 52.14 100.846C52.1 100.846 52.06 100.856 52.02 100.866C51.9 100.966 51.82 101.126 51.62 101.096C51.54 101.086 51.48 101.146 51.42 101.206C51.28 101.356 51.32 101.336 51.11 101.336C50.99 101.336 50.87 101.336 50.74 101.336C50.56 101.336 50.55 101.336 50.43 101.466C50.34 101.576 50.23 101.576 50.11 101.576C50 101.626 49.93 101.726 49.83 101.816H49.35C49.26 101.906 49.17 101.986 49.08 102.066H48.6C48.6 102.066 48.54 102.126 48.51 102.156C48.45 102.216 48.39 102.276 48.33 102.316C48.25 102.316 48.17 102.316 48.09 102.336C48 102.426 47.92 102.506 47.83 102.596C47.69 102.736 47.5967 102.806 47.55 102.806C47.47 102.806 47.39 102.806 47.31 102.806C47.19 102.806 47.0867 102.763 47 102.676C47 102.676 46.94 102.616 46.91 102.586C46.85 102.613 46.7633 102.683 46.65 102.796C46.57 102.796 46.49 102.796 46.41 102.806C46.35 102.856 46.29 102.916 46.23 102.966C46.2 102.996 46.17 103.016 46.14 103.046C45.86 103.046 45.86 103.046 45.81 103.136C45.78 103.206 45.78 103.286 45.77 103.366C45.77 103.446 45.7 103.506 45.62 103.526C45.35 103.596 45.35 103.596 45.21 103.716C45.18 103.736 45.14 103.756 45.11 103.766C45.02 103.756 44.94 103.766 44.88 103.806C44.79 103.876 44.73 103.996 44.6 104.016C44.52 104.016 44.44 104.016 44.36 104.016C44.18 104.016 44.18 104.016 44.05 104.156C43.99 104.226 43.93 104.276 43.85 104.266C43.76 104.256 43.69 104.266 43.63 104.326C43.57 104.386 43.52 104.446 43.45 104.506H42.97C42.88 104.596 42.79 104.676 42.7 104.756H42.22C42.13 104.846 42.06 104.936 41.95 104.996C41.91 104.996 41.87 104.996 41.83 104.996C41.71 104.996 41.59 105.006 41.47 104.976C41.41 104.916 41.36 104.856 41.3 104.806C41.28 104.786 41.24 104.796 41.22 104.786C41.16 104.846 41.11 104.916 41.05 104.956C40.94 105.026 40.82 104.996 40.7 104.996C38.66 104.996 36.62 104.996 34.59 104.996C34.41 104.996 34.41 104.996 34.28 104.856C34.2067 104.783 34.1 104.746 33.96 104.746C33.88 104.746 33.8 104.746 33.72 104.746C33.61 104.806 33.54 104.896 33.45 104.986C33.13 105.006 32.8 104.986 32.48 104.986C32.39 104.906 32.3 104.826 32.21 104.736H30.26C30.2 104.676 30.14 104.616 30.08 104.556C30.01 104.486 30.01 104.486 29.74 104.486C29.37 104.486 29.01 104.486 28.64 104.486C28.6 104.486 28.56 104.476 28.53 104.466C28.42 104.356 28.33 104.216 28.13 104.236C28.05 104.246 27.99 104.186 27.93 104.116C27.81 103.986 27.81 103.986 27.62 103.986C27.42 103.986 27.21 103.986 27.01 103.986C26.83 103.986 26.83 103.986 26.7 103.846C26.6267 103.773 26.52 103.736 26.38 103.736C26.3 103.736 26.22 103.736 26.13 103.736C25.92 103.606 25.8 103.386 25.58 103.246H24.88C24.79 103.156 24.72 103.066 24.61 103.006C24.53 103.006 24.45 103.006 24.37 102.986C24.23 102.846 24.08 102.696 23.94 102.556C23.84 102.496 23.71 102.556 23.61 102.466C23.52 102.396 23.47 102.266 23.32 102.276C23.28 102.276 23.24 102.276 23.2 102.276C23.16 102.266 23.13 102.236 23.1 102.216C22.95 102.076 22.82 101.926 22.66 101.796C22.58 101.796 22.5 101.796 22.42 101.796C22.02 101.396 21.61 100.986 21.21 100.586H20.72C20.4 100.266 20.09 99.9559 19.77 99.6359C19.71 99.576 19.66 99.5159 19.62 99.4559C19.62 99.3759 19.62 99.296 19.6 99.216C19.48 99.0959 19.37 98.986 19.25 98.866C18.97 98.866 18.97 98.8659 18.92 98.7759C18.88 98.716 18.87 98.6359 18.88 98.546C18.88 98.516 18.86 98.4659 18.83 98.4459C18.69 98.2959 18.54 98.1559 18.4 98.0159C18.4 97.9359 18.4 97.8559 18.4 97.7659C18.15 97.4959 17.89 97.2459 17.63 96.9859C17.42 96.7759 17.42 96.7759 17.42 96.7059C17.42 96.6259 17.42 96.546 17.42 96.466C17.42 96.296 17.42 96.2859 17.28 96.1559C17.21 96.0959 17.16 96.0359 17.17 95.9559C17.19 95.866 17.17 95.7959 17.1 95.7359C16.95 95.5959 16.81 95.4459 16.67 95.3059V95.0659C16.58 94.976 16.49 94.896 16.43 94.796C16.43 94.6759 16.43 94.5659 16.32 94.476C16.17 94.3559 16.18 94.3459 16.18 94.1659C16.18 93.966 16.18 93.7559 16.18 93.5559C16.18 93.3659 16.18 93.3559 16.06 93.2459C15.99 93.186 15.95 93.126 15.94 93.046C15.91 92.846 15.92 92.8359 15.8 92.7359C15.73 92.6759 15.69 92.616 15.69 92.5359C15.69 92.4959 15.69 92.4559 15.69 92.4159C15.68 92.3759 15.65 92.3459 15.63 92.3159C15.49 92.1659 15.34 92.0359 15.21 91.8759C15.21 91.7959 15.21 91.716 15.21 91.6359C15.07 91.4959 14.92 91.3459 14.78 91.2059C14.69 91.116 14.76 90.9759 14.69 90.8759C14.62 90.7859 14.5 90.7259 14.48 90.5959C14.45 90.396 14.45 90.396 14.34 90.2859C14.22 90.1759 14.11 90.056 13.99 89.936V89.6959C13.88 89.5759 13.76 89.466 13.65 89.3459C13.55 89.2459 13.5 89.1426 13.5 89.0359C13.5 88.8759 13.5 88.706 13.5 88.546C13.5 88.506 13.5 88.466 13.47 88.436C13.43 88.346 13.36 88.3159 13.27 88.3359C13.18 88.3559 13.11 88.336 13.06 88.256C13.02 88.196 13 88.1159 13.01 88.0259C13.01 87.9859 13.01 87.9459 13.01 87.9059C13.01 87.7793 12.9667 87.6759 12.88 87.5959C12.76 87.4859 12.65 87.366 12.53 87.2459C12.5 87.0859 12.52 86.9259 12.51 86.7659C12.37 86.5659 12.17 86.4259 12.02 86.2359C12.02 85.9859 12.02 85.7459 12.02 85.4959C12.02 85.3759 12.05 85.2459 11.92 85.1759C11.85 85.1359 11.77 85.146 11.69 85.146C11.66 85.126 11.62 85.1059 11.59 85.0859C11.53 85.0359 11.51 84.9559 11.53 84.866C11.53 84.826 11.53 84.7859 11.56 84.756C11.61 84.696 11.67 84.6359 11.73 84.576V84.4959C11.59 84.3559 11.44 84.2059 11.3 84.0659C11.28 83.9859 11.28 83.9159 11.28 83.826C11.24 83.766 11.18 83.7059 11.12 83.646C11.09 83.616 11.06 83.5859 11.03 83.5559V82.8159C10.92 82.7059 10.8 82.586 10.68 82.476C10.58 82.3826 10.5333 82.2793 10.54 82.1659C10.54 82.0059 10.54 81.836 10.54 81.6759C10.54 81.6359 10.53 81.5959 10.51 81.5659C10.47 81.476 10.4 81.446 10.31 81.476C10.22 81.4959 10.15 81.476 10.1 81.396C10.08 81.366 10.06 81.326 10.06 81.296C10.06 81.166 10.03 81.0559 9.93 80.9859C9.82 80.9059 9.81 80.7859 9.82 80.6659C9.77 80.5559 9.67 80.4859 9.59 80.396C9.59 80.3159 9.59 80.2359 9.58 80.1559C9.53 80.0959 9.47 80.0359 9.42 79.976C9.39 79.946 9.36 79.9159 9.33 79.896V79.4059C9.33 79.4059 9.27 79.3459 9.24 79.3159C9.18 79.256 9.12 79.1959 9.08 79.1359C9.08 79.0559 9.08 78.976 9.07 78.896C9 78.806 8.89 78.756 8.87 78.6359C8.93 78.576 8.99 78.516 9.04 78.466C9.04 78.436 9.04 78.396 9.04 78.3859C8.99 78.326 8.92 78.2759 8.87 78.2059C8.85 78.1759 8.84 78.1359 8.84 78.0959C8.85 78.006 8.84 77.9359 8.78 77.8759C8.72 77.8159 8.66 77.7559 8.6 77.6959V77.216C8.51 77.126 8.43 77.0359 8.35 76.9459V76.716C8.26 76.626 8.18 76.5359 8.11 76.4559C8.11 76.2859 8.12 76.126 8.09 75.966C8.03 75.906 7.97 75.8559 7.92 75.796C7.86 75.736 7.86 75.7359 7.86 75.4559C7.86 75.3759 7.86 75.296 7.86 75.216C7.86 75.016 7.86 75.016 7.74 74.896C7.61 74.766 7.61 74.7659 7.61 74.5859C7.61 74.4659 7.61 74.3459 7.61 74.216C7.61 74.0359 7.61 74.0359 7.48 73.9059C7.40667 73.8326 7.37 73.7259 7.37 73.5859C7.37 73.5059 7.37 73.4259 7.37 73.3459C7.32 73.2359 7.22 73.1659 7.13 73.0659V72.5859C7.04 72.4959 6.96 72.4059 6.88 72.3159V71.8359C6.88 71.8359 6.82 71.7759 6.79 71.7459C6.73 71.686 6.67 71.6259 6.64 71.5659C6.64 71.4859 6.64 71.406 6.62 71.326C6.5 71.2059 6.39 71.0859 6.27 70.9859C6.17 70.896 6.13 70.7959 6.15 70.6659C6.11 70.5459 6 70.4759 5.93 70.3859C5.91 70.3559 5.91 70.3159 5.9 70.2759C5.9 70.2359 5.9 70.1959 5.9 70.1559V69.9159C5.84 69.8059 5.75 69.7359 5.66 69.646C5.66 69.6059 5.66 69.5659 5.66 69.5259C5.66 69.1559 5.66 68.796 5.66 68.4259C5.58 68.336 5.5 68.2459 5.42 68.1559V66.936C5.36 66.876 5.3 66.8159 5.24 66.756C5.17 66.686 5.17 66.6859 5.17 66.4159C5.17 66.1259 5.17 65.8459 5.17 65.5559C5.17 65.5159 5.16 65.4759 5.15 65.4459C5.07 65.3559 4.97 65.2859 4.92 65.1759C4.92 65.0959 4.92 65.016 4.92 64.936C4.92 64.736 4.92 64.736 4.8 64.616C4.67 64.4959 4.67 64.4959 4.68 64.296C4.68 64.006 4.68 63.7259 4.68 63.4359C4.68 63.2559 4.68 63.2559 4.55 63.1259C4.47667 63.0526 4.44 62.9459 4.44 62.8059C4.44 62.7259 4.44 62.6459 4.44 62.5659C4.44 62.3859 4.42 62.2726 4.38 62.2259C4.32 62.1659 4.26 62.1059 4.2 62.0459V61.5659C4.11 61.4759 4.03 61.3859 3.95 61.2959V60.8259C3.86 60.7359 3.78 60.6459 3.71 60.5559C3.71 60.4259 3.71 60.2959 3.71 60.1759C3.71 60.0859 3.67 60.0359 3.6 59.9759C3.45 59.8459 3.46 59.8359 3.46 59.6659C3.46 59.5859 3.46 59.5059 3.46 59.4259C3.46 59.3726 3.39 59.2793 3.25 59.1459C3.16 59.0559 3.08 58.9759 2.99 58.8859C2.99 58.8459 2.97 58.8059 2.97 58.7759C2.97 58.4059 2.97 58.0459 2.97 57.6759C2.97 57.4059 2.97 57.4059 2.91 57.3359C2.85 57.2759 2.79 57.2159 2.73 57.1559V56.6759C2.64 56.5859 2.56 56.4959 2.48 56.4059V54.7059C2.42 54.6459 2.36 54.5859 2.3 54.5259C2.23 54.4559 2.23 54.4559 2.23 54.1859C2.23 53.8959 2.23 53.6159 2.23 53.3259C2.23 53.2459 2.19 53.1859 2.12 53.1259C1.97 52.9959 1.98 52.9859 1.98 52.8159C1.98 52.6959 1.98 52.5759 1.98 52.4459C1.98 52.3126 1.94 52.2059 1.86 52.1259C1.78 52.0459 1.74 51.9393 1.74 51.8059C1.74 51.4359 1.74 51.0759 1.74 50.7059C1.74 50.5359 1.74 50.5259 1.6 50.3959C1.52667 50.3226 1.49 50.2159 1.49 50.0759C1.49 49.9959 1.49 49.9159 1.49 49.8359C1.43 49.7259 1.33 49.6559 1.25 49.5659V49.3259C1.33 49.2459 1.4 49.1559 1.48 49.0659C1.42 49.0059 1.36 48.9559 1.31 48.8959C1.24 48.8259 1.24 48.8259 1.25 48.5559C1.25 47.8259 1.25 47.0859 1.25 46.3559C1.25 46.2759 1.25 46.1959 1.27 46.1159C1.33 46.0559 1.39 46.0059 1.44 45.9459C1.51 45.8759 1.51 45.6759 1.45 45.6159C1.37 45.5259 1.26 45.4659 1.24 45.3359C1.24 45.2559 1.24 45.1759 1.24 45.0959C1.24 44.9359 1.24 44.7659 1.24 44.6059C1.24 44.4359 1.24 44.4259 1.1 44.2959C1.03 44.2359 0.99 44.1759 0.99 44.0959C0.99 43.8959 0.99 43.6859 0.99 43.4859C0.97 43.4559 0.95 43.4159 0.92 43.3959C0.86 43.3359 0.81 43.2759 0.74 43.2159V40.2859C0.66 40.1959 0.57 40.1059 0.49 40.0159V38.5559C0.43 38.4959 0.37 38.4359 0.31 38.3759C0.24 38.3059 0.24 38.3059 0.24 38.0359C0.24 37.0959 0.24 36.1559 0.24 35.2259C0.24 34.6959 0.24 34.1659 0.24 33.6359C0.24 33.5559 0.24 33.4759 0.26 33.3959C0.32 33.3359 0.38 33.2859 0.43 33.2259C0.5 33.1559 0.5 32.9559 0.45 32.8959C0.39 32.8359 0.33 32.7859 0.28 32.7259C0.23 32.6659 0.24 32.5859 0.24 32.4959C0.24 32.4259 0.18 32.3559 0.11 32.3059C0.03 32.2559 0 32.1859 0 32.1059C0 30.1459 0 28.1959 0 26.2359C0 26.0859 0 26.0859 0.15 25.9359C0.18 25.9059 0.21 25.8759 0.24 25.8459V25.3559C0.16 25.2759 0.09 25.1859 0.01 25.0959C0.07 25.0359 0.12 24.9759 0.18 24.9259C0.24 24.8659 0.27 24.7959 0.25 24.7059C0.25 24.6659 0.24 24.6259 0.23 24.5959C0.15 24.5059 0.04 24.4459 0.01 24.3259C-0.01 24.2459 0.01 24.1659 0.01 24.0859C0.01 23.9526 0.05 23.8459 0.13 23.7659C0.25 23.6459 0.25 23.6459 0.25 23.4459C0.25 23.0759 0.25 22.7159 0.25 22.3459C0.25 22.1759 0.25 22.1659 0.39 22.0359C0.46 21.9759 0.5 21.9159 0.5 21.8359C0.5 20.0459 0.5 18.2459 0.5 16.4559C0.5 16.3059 0.5 16.3059 0.65 16.1559C0.68 16.1259 0.71 16.0959 0.74 16.0659C0.74 15.6659 0.74 15.2559 0.74 14.8559C0.82 14.7659 0.9 14.6759 0.99 14.5859V14.3459C1.08 14.2559 1.17 14.1759 1.23 14.0759C1.23 13.9959 1.23 13.9159 1.25 13.8359C1.31 13.7759 1.37 13.7259 1.42 13.6659C1.44 13.6359 1.47 13.5959 1.47 13.5659C1.47 13.4759 1.47 13.3959 1.51 13.3359C1.56 13.2759 1.63 13.2259 1.68 13.1559C1.7 13.1259 1.72 13.0859 1.72 13.0459C1.72 12.8059 1.72 12.5559 1.72 12.3159C1.72 12.2026 1.76667 12.0993 1.86 12.0059C1.98 11.8959 2.09 11.7759 2.21 11.6559V10.4459C2.3 10.3559 2.38 10.2659 2.46 10.1759V9.20595C2.55 9.11595 2.64 9.03595 2.7 8.93595C2.7 8.85595 2.7 8.77595 2.72 8.69595C2.78 8.63595 2.84 8.57595 2.89 8.52595C2.95 8.46595 3 8.40595 3.06 8.35595H3.31C3.43 8.23595 3.54 8.12595 3.66 8.00595C3.68 7.93595 3.68 7.85595 3.68 7.76594C3.68 7.60595 3.68 7.43595 3.68 7.27595C3.68 7.00595 3.68 7.00595 3.75 6.93595C3.81 6.87595 3.87 6.81595 3.93 6.75595V6.26594C4.1 6.09594 4.27 5.92594 4.45 5.74594C4.67 5.52595 4.67 5.52595 4.67 5.46595C4.67 5.38595 4.67 5.30594 4.67 5.22594C4.67 5.03594 4.67 5.03595 4.79 4.90595C4.91 4.78595 4.91 4.78594 4.91 4.58595C4.91 4.50595 4.91 4.42595 4.91 4.34595C4.95 4.22595 5.05 4.15595 5.14 4.07595C5.37 3.84595 5.6 3.61595 5.83 3.38595C5.86 3.35595 5.88 3.32595 5.89 3.28595C6.03 2.95595 6.03 2.95595 6.24 2.95595C6.27 2.92595 6.3 2.90595 6.33 2.87595C6.39 2.81595 6.44 2.75595 6.48 2.70595H6.99C7.08 2.78595 7.14 2.88595 7.25 2.92595C7.34 2.84595 7.41 2.74595 7.52 2.69595H7.76C7.76 2.69595 7.84 2.69595 7.88 2.69595C7.92 2.69595 7.96 2.68595 7.99 2.66595C8.08 2.59595 8.14 2.47595 8.27 2.45595C8.4 2.47595 8.51 2.42595 8.58 2.31595C8.66 2.19595 8.78 2.20595 8.9 2.20595C8.93 2.18595 8.97 2.16595 9 2.14595C9.06 2.08595 9.12 2.03595 9.18 1.96595H9.66C9.85 1.80595 10.01 1.61595 10.17 1.47595C10.32 1.47595 10.44 1.47595 10.56 1.47595C10.65 1.47595 10.7 1.43595 10.76 1.36595C10.89 1.21595 10.9 1.22595 11.07 1.22595C11.19 1.22595 11.31 1.25595 11.42 1.18595C11.49 1.14595 11.53 1.06595 11.6 1.01595C11.63 0.995945 11.67 0.985945 11.71 0.975945C11.92 0.945945 11.92 0.945945 12.11 0.755945C12.23 0.795945 12.28 0.895945 12.37 0.965945C12.46 0.885945 12.54 0.805945 12.64 0.725945H13.12C13.27 0.575945 13.41 0.435945 13.56 0.295945C13.59 0.275945 13.63 0.245945 13.66 0.245945C14.31 0.245945 14.96 0.245945 15.62 0.245945C15.81 0.245945 15.81 0.245945 15.94 0.125945C16.06 0.0059453 16.06 -0.0040547 16.26 0.0059453C16.54 0.0059453 16.54 -0.0440547 16.69 0.145945C16.78 0.255945 16.9 0.255945 17.01 0.255945C17.09 0.255945 17.17 0.255945 17.25 0.255945C17.36 0.195945 17.43 0.0959453 17.52 0.0159453H17.76C17.84 0.0959453 17.93 0.175945 18.02 0.255945H20.71C20.71 0.255945 20.77 0.195945 20.8 0.165945C20.97 0.00594531 20.97 0.0059453 21.1 0.0159453C21.18 0.0159453 21.24 0.0559453 21.3 0.125945C21.43 0.265945 21.43 0.265945 21.61 0.265945C22.34 0.265945 23.08 0.265945 23.81 0.265945C23.93 0.265945 24.05 0.235945 24.16 0.305945C24.23 0.345945 24.28 0.415945 24.33 0.475945C24.39 0.485945 24.45 0.455945 24.5 0.375945C24.55 0.295945 24.62 0.275945 24.7 0.265945C24.79 0.265945 24.86 0.265945 24.92 0.335945C24.97 0.395945 25.03 0.455945 25.1 0.515945H27.54C27.63 0.595945 27.72 0.685945 27.81 0.765945H29.76C29.82 0.825945 29.88 0.885945 29.94 0.945945C30.01 1.01595 30.01 1.01595 30.28 1.00595C30.69 1.00595 31.1 1.00595 31.5 1.00595C31.58 1.00595 31.66 1.00595 31.74 1.02595C31.8 1.08595 31.85 1.14595 31.91 1.19595C31.94 1.21595 31.98 1.24595 32.01 1.24595C32.3 1.24595 32.58 1.24595 32.87 1.24595C32.95 1.24595 33.03 1.24595 33.11 1.24595C33.24 1.25595 33.3 1.37595 33.39 1.45595C33.46 1.51595 33.65 1.50595 33.72 1.43595C33.78 1.37595 33.84 1.31595 33.89 1.26595C33.92 1.28595 33.95 1.29595 33.98 1.31595C34.04 1.36595 34.1 1.42595 34.16 1.48595H35.13C35.22 1.56595 35.31 1.65595 35.4 1.73595C35.81 1.73595 36.21 1.73595 36.61 1.73595C36.7 1.82595 36.78 1.92595 36.89 1.97595C37.05 1.97595 37.22 1.97595 37.38 1.97595C37.59 1.97595 37.59 1.97595 37.7 2.08595C37.83 2.22595 37.84 2.22595 38.01 2.22595C38.13 2.22595 38.25 2.22595 38.38 2.22595C38.57 2.22595 38.58 2.22595 38.69 2.35595C38.75 2.42595 38.81 2.47595 38.89 2.47595C38.98 2.47595 39.06 2.47595 39.11 2.53595C39.26 2.67595 39.4 2.82595 39.55 2.96595H40.28C40.37 3.04595 40.46 3.13595 40.55 3.21595C40.79 3.21595 41.04 3.21595 41.28 3.21595C41.37 3.29595 41.44 3.39595 41.55 3.45595H41.79C41.79 3.45595 41.87 3.45595 41.91 3.45595C41.95 3.45595 41.98 3.47595 42.02 3.47595C42.13 3.58595 42.22 3.73595 42.42 3.69595C42.55 3.71595 42.61 3.83595 42.7 3.90595C42.73 3.92595 42.77 3.93595 42.81 3.93595C42.85 3.93595 42.89 3.93595 42.93 3.93595C43.22 3.93595 43.22 3.93595 43.27 3.98595C43.33 4.04595 43.39 4.10595 43.44 4.15595C43.6 4.18595 43.76 4.16595 43.93 4.17595C44.01 4.24595 44.1 4.33595 44.19 4.41595H44.67C44.67 4.41595 44.73 4.47594 44.76 4.49594C44.82 4.54595 44.88 4.60595 44.94 4.65595C45.02 4.65595 45.1 4.65594 45.18 4.66595C45.32 4.80594 45.46 4.95595 45.61 5.09595C45.7 5.17595 45.84 5.11594 45.94 5.18595C46.03 5.25595 46.09 5.37595 46.22 5.38595C46.41 5.40595 46.41 5.40595 46.53 5.52595C46.56 5.55595 46.59 5.58595 46.62 5.61595C46.78 5.64595 46.94 5.62595 47.11 5.63595C47.19 5.71595 47.28 5.79595 47.37 5.87595H47.62C47.62 5.87595 47.67 5.93595 47.7 5.96595C47.76 6.01595 47.82 6.07594 47.88 6.12595C47.96 6.12595 48.04 6.12595 48.12 6.13595C48.21 6.21595 48.28 6.32595 48.39 6.36595C48.67 6.45595 48.67 6.45595 48.8 6.56595C48.83 6.58595 48.87 6.61595 48.9 6.60595C49.03 6.60595 49.13 6.63595 49.22 6.73595C49.33 6.85595 49.45 6.96595 49.56 7.08595C49.64 7.08595 49.72 7.08595 49.8 7.09595C49.86 7.13595 49.92 7.19595 49.98 7.25595C50.01 7.28595 50.04 7.31595 50.07 7.34595H50.32C50.46 7.48595 50.61 7.63595 50.75 7.77595C50.84 7.86595 50.98 7.79595 51.08 7.86595C51.18 7.93595 51.23 8.04595 51.36 8.07595C51.49 8.05595 51.6 8.10595 51.67 8.20595C51.75 8.31595 51.87 8.32595 51.99 8.31595C52.02 8.33595 52.06 8.35595 52.09 8.37595C52.12 8.40595 52.15 8.43595 52.18 8.46595C52.29 8.58595 52.41 8.69595 52.52 8.81595H52.77C52.91 8.95595 53.06 9.10595 53.2 9.24595C53.26 9.30595 53.33 9.30595 53.42 9.30595C53.56 9.30595 53.61 9.43595 53.7 9.50595C53.76 9.55595 53.84 9.55595 53.93 9.54595C53.96 9.54595 54 9.56595 54.03 9.58595C54.09 9.63595 54.14 9.70595 54.21 9.75595C54.27 9.79595 54.36 9.79595 54.44 9.78595C54.47 9.80595 54.51 9.81595 54.54 9.84595C54.89 10.1859 55.23 10.5359 55.58 10.8859V11.1259C55.87 11.4159 56.16 11.7059 56.44 11.9959H56.68C56.77 12.0859 56.86 12.1759 56.94 12.2559C57 12.3159 57.05 12.3759 57.11 12.4259C57.2 12.5159 57.34 12.4559 57.44 12.5159C57.58 12.6559 57.73 12.8059 57.87 12.9459C58.16 12.9959 58.16 12.9859 58.38 13.2059H58.61C58.7 13.2959 58.79 13.3759 58.88 13.4559H59.11C59.26 13.6059 59.4 13.7459 59.55 13.8859C59.64 13.9759 59.78 13.9059 59.88 13.9759C59.97 14.0459 60.03 14.1659 60.16 14.1859C60.36 14.2159 60.36 14.2159 60.47 14.3259C60.67 14.5259 60.87 14.7359 61.08 14.9259C61.16 14.9259 61.24 14.9259 61.32 14.9259C61.41 15.0159 61.49 15.0959 61.58 15.1859C61.64 15.2459 61.69 15.3059 61.75 15.3559C61.84 15.4359 61.99 15.3659 62.08 15.4459C62.23 15.5859 62.37 15.7359 62.51 15.8759C62.67 15.9059 62.83 15.8859 62.99 15.8959C63.07 15.9259 63.12 15.9859 63.14 16.0659C63.15 16.1459 63.14 16.2259 63.14 16.3059C63.14 16.5059 63.14 16.5059 63.26 16.6259C63.35 16.7059 63.43 16.7959 63.52 16.8759C63.81 16.8759 63.81 16.8759 63.85 16.9759C63.88 17.0459 63.88 17.1259 63.88 17.2059C63.96 17.3459 64.09 17.4459 64.2 17.5559C64.22 17.5859 64.27 17.6059 64.3 17.6059C64.43 17.6059 64.54 17.6259 64.61 17.7359C65.27 18.3959 65.94 19.0659 66.6 19.7259C66.69 19.8159 66.77 19.8959 66.86 19.9859C67.05 20.1659 67.05 20.1659 67.05 20.2759C67.0567 20.3893 67.1067 20.4893 67.2 20.5759C67.52 20.8959 67.83 21.2059 68.15 21.5259C68.2367 21.6126 68.4033 21.6993 68.65 21.7859C68.73 21.8359 68.75 21.9059 68.76 21.9859C68.77 22.2059 68.79 22.2259 69.05 22.2559C69.09 22.2559 69.13 22.2659 69.16 22.2859C69.25 22.3259 69.27 22.3959 69.25 22.4959C69.25 22.5359 69.25 22.5759 69.25 22.6259C69.59 22.9659 69.94 23.3159 70.28 23.6559C70.4 23.7759 70.51 23.8859 70.63 24.0059C70.75 24.1259 70.86 24.2359 70.97 24.3559C71.07 24.4659 71.24 24.5459 71.2 24.7459C71.2067 24.8126 71.3033 24.9359 71.49 25.1159C71.63 25.2559 71.78 25.4059 71.92 25.5459C71.94 25.6259 71.94 25.6959 71.94 25.7859C71.98 25.8459 72.04 25.9059 72.1 25.9659C72.19 26.0459 72.27 26.1359 72.36 26.2259C72.39 26.2559 72.42 26.2859 72.43 26.3159C72.44 26.3959 72.44 26.4759 72.45 26.5359C72.66 26.7559 72.85 26.9559 73.04 27.1559H73.29C73.38 27.2459 73.46 27.3359 73.56 27.3959C73.64 27.3959 73.72 27.3959 73.8 27.4159C73.86 27.4759 73.92 27.5359 73.97 27.5859C74.03 27.6459 74.09 27.6959 74.14 27.7559V28.0059C74.19 28.0859 74.26 28.1359 74.33 28.1259C74.42 28.1259 74.49 28.1259 74.55 28.1759C74.62 28.2259 74.64 28.2959 74.62 28.3959C74.62 28.5659 74.67 28.6059 74.84 28.6159C74.93 28.5959 75 28.6159 75.06 28.6859C75.61 29.2359 76.15 29.7859 76.7 30.3259C76.79 30.4159 76.87 30.4959 76.96 30.5759C77.05 30.5759 77.13 30.5759 77.21 30.5859C77.33 30.7059 77.44 30.8159 77.56 30.9359C77.6467 31.0226 77.75 31.0659 77.87 31.0659C77.95 31.0659 78.03 31.0659 78.11 31.0659C78.1567 31.0659 78.25 31.1359 78.39 31.2759C78.62 31.5059 78.85 31.7359 79.08 31.9659C79.11 31.9959 79.14 32.0159 79.17 32.0359C79.25 32.0359 79.33 32.0359 79.41 32.0459C79.53 32.1659 79.64 32.2759 79.76 32.3959C79.76 32.4759 79.76 32.5559 79.76 32.6359C79.95 32.8459 80.16 33.0459 80.36 33.2459C80.52 33.2559 80.65 33.2959 80.69 33.3359C80.89 33.5359 81.09 33.7359 81.3 33.9459C81.36 34.0059 81.43 34.0259 81.52 34.0059C81.67 34.0259 81.72 34.0859 81.72 34.2459C81.72 34.3659 81.72 34.4859 81.72 34.6259C82.44 35.3459 83.16 36.0659 83.88 36.7859C84.2 37.1059 84.51 37.4159 84.83 37.7359C84.95 37.8259 84.88 37.9559 84.93 38.0759C85 38.1459 85.09 38.2359 85.18 38.3259C85.27 38.4159 85.35 38.4959 85.44 38.5859C85.5 38.6459 85.57 38.6959 85.61 38.7559C85.67 38.8559 85.61 38.9959 85.7 39.0859C85.79 39.1759 85.87 39.2559 85.96 39.3459C86.05 39.4359 86.13 39.5159 86.22 39.6059C86.34 39.7259 86.45 39.8359 86.57 39.9559C86.66 40.0459 86.75 40.1259 86.83 40.2159C86.91 40.3059 86.83 40.4559 86.92 40.5459C87.12 40.7559 87.32 40.9559 87.52 41.1559C87.66 41.2959 87.82 41.4359 87.95 41.5859C88.1 41.7659 88.37 41.8559 88.34 42.1559C88.3467 42.2026 88.4767 42.3526 88.73 42.6059C88.87 42.7459 89.02 42.8959 89.16 43.0359C89.22 43.0959 89.27 43.1559 89.31 43.2159C89.31 43.2959 89.31 43.3759 89.33 43.4559C89.47 43.5959 89.62 43.7359 89.76 43.8859C89.84 43.9759 89.76 44.1159 89.85 44.2159C89.92 44.3059 90.05 44.3559 90.05 44.5059C90.05 44.5459 90.05 44.5859 90.05 44.6259C90.05 44.6659 90.09 44.6959 90.11 44.7259C90.17 44.7859 90.22 44.8459 90.29 44.9059V45.3859C90.38 45.4759 90.46 45.5659 90.54 45.6559V45.8959C90.66 46.0159 90.77 46.1259 90.89 46.2459C90.96 46.2659 91.04 46.2659 91.13 46.2659C91.19 46.3059 91.25 46.3659 91.31 46.4259C91.39 46.5159 91.48 46.5959 91.57 46.6859C91.63 46.7459 91.7 46.7959 91.74 46.8659C91.78 46.9259 91.77 47.0159 91.77 47.0959C91.83 47.2059 91.92 47.2759 92.01 47.3659C92.01 47.4459 92.01 47.5259 92.01 47.6159C92.12 47.7259 92.23 47.8459 92.35 47.9559C92.47 48.0759 92.48 48.1159 92.52 48.3759C92.64 48.4959 92.75 48.6059 92.87 48.7259H93.12C93.25 48.8459 93.24 48.8459 93.1 48.9859C93.07 49.0159 93.04 49.0459 93.01 49.0759C93.05 49.1859 93.15 49.2459 93.23 49.3359V49.5659C93.31 49.6559 93.4 49.7459 93.48 49.8359C93.48 50.1159 93.48 50.1159 93.58 50.1659C93.65 50.1959 93.73 50.1859 93.81 50.1959C93.89 50.1959 93.95 50.2659 93.97 50.3459C93.98 50.3859 93.97 50.4259 93.97 50.4659C93.97 50.5859 93.96 50.7059 93.99 50.8259C94.05 50.8859 94.11 50.9359 94.16 50.9959C94.18 51.0259 94.21 51.0659 94.21 51.0959C94.21 51.1859 94.21 51.2659 94.25 51.3259C94.3 51.3859 94.37 51.4359 94.42 51.5059C94.44 51.5359 94.45 51.5759 94.45 51.6159C94.48 51.8359 94.51 51.8959 94.6 51.9059C94.68 51.9059 94.76 51.9059 94.84 51.9259C94.96 52.0459 95.07 52.1559 95.19 52.2759V52.5159C95.27 52.6059 95.36 52.6959 95.44 52.7859C95.44 53.0759 95.44 53.3559 95.44 53.6459C95.44 53.6859 95.44 53.7259 95.44 53.7659C95.52 53.8559 95.62 53.9259 95.67 54.0359C95.67 54.1159 95.67 54.1959 95.67 54.2759C95.67 54.4159 95.7067 54.5226 95.78 54.5959C95.92 54.7259 95.92 54.7259 95.91 54.9059C95.91 54.9859 95.91 55.0659 95.91 55.1459C95.93 55.2759 96.05 55.3359 96.12 55.4259C96.14 55.4559 96.15 55.4959 96.15 55.5359C96.15 55.7759 96.15 56.0259 96.15 56.2659C96.15 56.3793 96.1967 56.4826 96.29 56.5759C96.41 56.6559 96.39 56.7859 96.39 56.8959C96.45 56.9959 96.55 57.0759 96.63 57.1659V59.3659C96.71 59.4559 96.8 59.5459 96.88 59.6259C96.88 60.0759 96.88 60.5259 96.88 60.9759C96.88 61.0159 96.88 61.0559 96.89 61.0959C96.95 61.1559 97 61.2159 97.06 61.2659C97.12 61.3259 97.14 61.3959 97.12 61.4859C97.12 61.5259 97.12 61.5659 97.09 61.5959C97.04 61.6559 96.98 61.7159 96.92 61.7659C96.88 61.8259 96.92 61.8759 97 61.9359C97.13 62.0459 97.12 62.0559 97.12 62.2559C97.12 62.5459 97.12 62.8259 97.12 63.1159C97.12 63.2859 97.12 63.2859 97.26 63.4259C97.33 63.4859 97.36 63.5459 97.37 63.6259C97.37 63.7159 97.37 63.7859 97.3 63.8459C97.24 63.8959 97.18 63.9559 97.12 64.0159V64.7459C97.2 64.8359 97.28 64.9259 97.36 65.006C97.36 65.256 97.36 65.4959 97.35 65.7359C97.29 65.7959 97.23 65.8459 97.18 65.9059C97.12 65.9659 97.12 65.966 97.12 66.2459C97.12 66.406 97.12 66.5759 97.12 66.7359C97.12 66.9459 97.12 66.9459 97.01 67.0559C96.88 67.1859 96.88 67.186 96.88 67.366C96.88 67.446 96.88 67.5259 96.88 67.6059C96.86 67.7359 96.74 67.796 96.67 67.8859C96.65 67.9159 96.64 67.9559 96.64 67.9959C96.64 68.2859 96.64 68.5659 96.64 68.8559C96.64 69.1359 96.64 69.1359 96.58 69.1959C96.52 69.2559 96.46 69.3159 96.41 69.3759C96.38 69.6959 96.41 70.0259 96.4 70.3559C96.32 70.436 96.24 70.526 96.16 70.616V70.866C96.05 70.976 95.93 71.0859 95.82 71.2059C95.67 71.3459 95.67 71.3559 95.67 71.5159C95.67 71.5959 95.67 71.6759 95.67 71.756C95.67 71.876 95.69 71.9959 95.64 72.116C95.58 72.1759 95.52 72.226 95.47 72.2859C95.45 72.3159 95.43 72.3559 95.43 72.3859C95.43 72.8759 95.43 73.366 95.43 73.8559C95.43 74.046 95.43 74.0459 95.3 74.1659C95.23 74.2259 95.19 74.2859 95.18 74.366C95.15 74.616 95.13 74.6359 94.91 74.6559C94.83 74.6559 94.76 74.6859 94.71 74.7659C94.63 75.0059 94.5433 75.1726 94.45 75.2659V76.006C94.31 76.146 94.16 76.2859 94.02 76.436C93.93 76.5259 93.99 76.6659 93.93 76.7659C93.87 76.8659 93.75 76.916 93.72 77.046C93.74 77.1759 93.69 77.2759 93.59 77.3559C93.5 77.436 93.42 77.526 93.33 77.616C93.19 77.756 93.04 77.906 92.9 78.046C92.83 78.076 92.76 78.0959 92.67 78.076C92.64 78.0959 92.6 78.1059 92.57 78.1259C92.42 78.2659 92.28 78.4159 92.14 78.5559C91.87 78.5559 91.74 78.5359 91.77 78.9959C91.77 79.1759 91.77 79.1859 91.64 79.3059C91.53 79.4059 91.45 79.576 91.25 79.546C91.09 79.5659 91.04 79.6059 91.04 79.7759C91.04 79.8159 91.04 79.8559 91.04 79.896C90.86 80.116 90.64 80.306 90.45 80.506C90.29 80.5359 90.13 80.5159 89.97 80.5259C89.83 80.6159 89.73 80.7459 89.62 80.8559C89.6 80.8759 89.59 80.9259 89.58 80.9559C89.53 81.2259 89.53 81.2459 89.44 81.256C89.36 81.256 89.28 81.2559 89.2 81.2659C89.08 81.3859 88.97 81.4959 88.85 81.616C88.85 81.696 88.85 81.776 88.84 81.866C88.73 81.976 88.62 82.0959 88.5 82.2059C88.48 82.2259 88.43 82.2359 88.39 82.2359C88.18 82.2659 88.11 82.296 88.1 82.3859C88.1 82.466 88.1 82.5459 88.08 82.6259L87.73 82.976H87.48C87.48 82.976 87.43 83.0359 87.4 83.0659C87.11 83.3559 86.82 83.646 86.54 83.9259C86.47 83.9559 86.39 83.966 86.31 83.9559C86.28 83.9759 86.24 83.9859 86.21 84.0159C86.06 84.1559 85.92 84.3059 85.78 84.4459C85.7 84.4459 85.62 84.4459 85.53 84.4459C85.39 84.5859 85.24 84.7359 85.1 84.8759C85.07 84.9059 85.04 84.9259 85 84.936C84.96 84.936 84.92 84.936 84.88 84.936C84.84 84.936 84.81 84.9559 84.77 84.966C84.54 85.196 84.31 85.4259 84.08 85.6559C84 85.6559 83.92 85.6559 83.84 85.6659C83.78 85.716 83.72 85.7759 83.66 85.826C83.63 85.8559 83.6 85.8859 83.58 85.9059H83.33L83.36 85.9459ZM30.88 23.9059C30.88 23.7859 30.91 23.6559 30.78 23.5759L28.62 21.4159C28.53 21.3259 28.45 21.2359 28.36 21.1559C28.27 21.0659 28.12 21.1359 28.03 21.0659C27.93 20.9859 27.86 20.8959 27.77 20.8059C27.48 20.5159 27.19 20.2259 26.91 19.9359C26.85 19.8759 26.78 19.8559 26.69 19.8759C26.65 19.8759 26.62 19.8659 26.58 19.8559C26.47 19.7459 26.38 19.5959 26.18 19.6359C26.1267 19.6293 26.0033 19.5293 25.81 19.3359C25.67 19.1959 25.52 19.0459 25.38 18.9059H25.14L24.45 18.2159L23.93 17.6959C23.93 17.6959 23.85 17.6859 23.81 17.6759C23.77 17.6759 23.73 17.6759 23.69 17.6759C23.47 17.4959 23.28 17.2859 23.08 17.0859C23.06 17.0159 23.05 16.9359 23.06 16.8459C23.03 16.7659 22.98 16.7059 22.9 16.6959C22.74 16.6759 22.58 16.7159 22.42 16.6659C22.3 16.5459 22.19 16.4359 22.07 16.3159C21.95 16.1959 21.98 16.1959 21.75 16.1959C21.59 16.1959 21.42 16.1959 21.26 16.1959C20.98 16.1959 20.98 16.1959 20.92 16.1359C20.86 16.0759 20.8 16.0159 20.75 15.9659C20.63 15.9659 20.52 15.9159 20.42 16.0259C20.34 16.1159 20.25 16.2059 20.16 16.2859C20.1 16.3459 20.04 16.3959 19.98 16.4459C19.9 16.4459 19.82 16.4459 19.74 16.4559C19.48 16.7159 19.22 16.9759 18.96 17.2359C18.9 17.2959 18.88 17.3659 18.9 17.4559C18.91 17.5359 18.86 17.5959 18.79 17.6559C18.65 17.7859 18.65 17.7859 18.65 17.9659C18.65 18.2559 18.65 18.2659 18.61 18.3159C18.59 18.3459 18.55 18.3759 18.52 18.4059H18.28C18.19 18.4959 18.11 18.5859 18.02 18.6659C17.9467 18.7326 17.91 18.8393 17.91 18.9859C17.91 19.0659 17.91 19.1459 17.91 19.2459C17.83 19.3259 17.75 19.4159 17.67 19.5159V19.7459C17.67 19.7459 17.61 19.8059 17.59 19.8359C17.54 19.8959 17.48 19.9559 17.43 20.0159C17.43 20.0959 17.43 20.1759 17.43 20.2559C17.35 20.3459 17.25 20.4159 17.2 20.5259C17.2 20.6059 17.2 20.6859 17.2 20.7659C17.2 20.9759 17.2 20.9859 17.09 21.0859C16.95 21.2159 16.95 21.2159 16.95 21.3959C16.95 21.5959 16.95 21.8059 16.95 22.0059C16.95 22.1959 16.95 22.1959 16.82 22.3159C16.7 22.4359 16.7 22.4359 16.7 22.6359C16.7 23.5359 16.7 24.4259 16.7 25.3259C16.7 25.6159 16.7 25.6159 16.75 25.6659C16.81 25.7259 16.87 25.7859 16.92 25.8359C16.92 25.8759 16.94 25.9159 16.94 25.9459C16.94 26.2359 16.94 26.5159 16.94 26.8059C16.94 27.0759 16.94 27.0759 17.01 27.1459C17.07 27.2059 17.13 27.2659 17.18 27.3259V28.5459C17.26 28.6359 17.35 28.7259 17.43 28.8059C17.43 29.1759 17.43 29.5459 17.43 29.9059C17.43 29.9459 17.43 29.9859 17.43 30.0259C17.49 30.0859 17.55 30.1359 17.6 30.1959C17.66 30.2559 17.66 30.2659 17.66 30.5359C17.66 30.9059 17.66 31.2659 17.66 31.6359C17.66 31.6759 17.68 31.7059 17.68 31.7459C17.8 31.8659 17.9 31.9859 18.03 32.0859C18.13 32.1759 18.15 32.2859 18.15 32.4059C18.17 32.4359 18.18 32.4759 18.21 32.5059C18.29 32.5959 18.38 32.6859 18.47 32.7659C18.56 32.8559 18.7 32.7959 18.8 32.8559C18.83 32.8759 18.86 32.9159 18.89 32.9459V33.4359C18.89 33.4359 18.95 33.4959 18.98 33.5259C19.21 33.7559 19.44 33.9859 19.67 34.2159C19.75 34.2959 19.8167 34.4326 19.87 34.6259C19.88 34.6759 19.98 34.7859 20.19 34.9859C20.22 35.0059 20.26 35.0359 20.29 35.0359C20.42 35.0359 20.52 35.0559 20.61 35.1559C20.72 35.2759 20.84 35.3859 20.95 35.5059C21.07 35.5459 21.19 35.5259 21.31 35.5259C21.46 35.5259 21.46 35.5259 21.61 35.6759C21.72 35.7859 21.86 35.8859 21.83 36.0759C21.84 36.1059 21.85 36.1559 21.87 36.1759C22.04 36.3559 22.21 36.5259 22.39 36.6959C22.48 36.7859 22.62 36.7159 22.72 36.7859C22.78 36.8359 22.84 36.8959 22.89 36.9559L23.15 37.2159L23.41 37.4759H23.65C23.74 37.5559 23.83 37.6459 23.92 37.7259C24.2 37.7259 24.2 37.7259 24.25 37.8259C24.28 37.8959 24.27 37.9759 24.28 38.0559C24.28 38.1359 24.36 38.1859 24.43 38.2159C24.55 38.2159 24.67 38.2159 24.75 38.3259C24.82 38.4259 24.93 38.4759 25.06 38.4659C25.14 38.4659 25.19 38.5259 25.25 38.5859C25.36 38.7159 25.37 38.7059 25.57 38.7059C25.65 38.7059 25.73 38.7059 25.81 38.7059C25.93 38.7459 26 38.8559 26.08 38.9359C26.17 39.0159 26.25 39.1059 26.34 39.1959H26.82C26.82 39.1959 26.88 39.2559 26.91 39.2759C26.97 39.3259 27.03 39.3859 27.09 39.4359C27.17 39.4359 27.25 39.4359 27.33 39.4459C27.39 39.5059 27.44 39.5659 27.5 39.6159C27.56 39.6759 27.56 39.6759 27.84 39.6759C27.92 39.6759 28 39.6759 28.08 39.6759C28.29 39.6759 28.29 39.6759 28.4 39.7859C28.49 39.8859 28.58 39.9259 28.71 39.9159C28.79 39.9159 28.85 39.9659 28.9 40.0359C28.95 40.1159 29.02 40.1659 29.1 40.1559C29.3 40.1259 29.38 40.2859 29.5 40.3859C29.57 40.4059 29.65 40.4059 29.74 40.4059C29.8 40.4459 29.86 40.4959 29.92 40.5659C29.95 40.5959 29.98 40.6259 30.01 40.6559H30.26C30.26 40.6559 30.31 40.7159 30.34 40.7459C30.43 40.8259 30.49 40.9359 30.64 40.9059C31.21 40.9059 31.78 40.9059 32.35 40.9059C32.39 40.9059 32.43 40.9059 32.47 40.9159C32.56 40.9959 32.63 41.0959 32.74 41.1459H32.98C32.98 41.1459 33.06 41.1459 33.1 41.1459C33.14 41.1459 33.18 41.1459 33.21 41.1759C33.3 41.2459 33.36 41.3559 33.49 41.3959C33.68 41.3559 33.78 41.4959 33.89 41.6159C33.96 41.6459 34.04 41.6559 34.12 41.6459C34.2 41.6459 34.28 41.6459 34.36 41.6459C34.64 41.6459 34.64 41.6459 34.7 41.7059C34.76 41.7659 34.82 41.8259 34.87 41.8759C34.95 41.8759 35.03 41.8759 35.11 41.8859C35.17 41.9359 35.23 41.9859 35.29 42.0459C35.32 42.0759 35.35 42.1059 35.38 42.1359H35.63C35.74 42.2559 35.86 42.3659 35.98 42.4859C36.0733 42.5793 36.1767 42.6259 36.29 42.6259C36.49 42.6259 36.7 42.6259 36.9 42.6259C37.0333 42.6259 37.14 42.6659 37.22 42.7459C37.3067 42.8326 37.41 42.8759 37.53 42.8759C37.86 42.8759 38.18 42.8759 38.51 42.8759C38.54 42.8759 38.59 42.8959 38.61 42.9159C38.76 43.0559 38.9 43.2059 39.04 43.3459C39.08 43.3459 39.12 43.3559 39.16 43.3559C39.69 43.3559 40.22 43.3559 40.76 43.3559C40.84 43.4359 40.93 43.5159 41.02 43.6059H41.5C41.59 43.6859 41.68 43.7759 41.76 43.8459C42.01 43.8459 42.25 43.8359 42.5 43.8659C42.53 43.8959 42.56 43.9259 42.59 43.9559C42.6833 44.0493 42.7867 44.0959 42.9 44.0959C42.98 44.0959 43.06 44.0959 43.14 44.0959C43.1933 44.0959 43.2867 44.1626 43.42 44.2959C43.48 44.3559 43.54 44.4059 43.59 44.4659C43.6633 44.5393 43.77 44.5759 43.91 44.5759C43.99 44.5759 44.07 44.5759 44.15 44.5759C44.26 44.6259 44.33 44.7259 44.42 44.8059C44.5 44.8059 44.58 44.8059 44.66 44.8159C44.69 44.8359 44.72 44.8659 44.75 44.8959C45.33 45.4759 45.9 46.0459 46.48 46.6259C46.49 46.6659 46.51 46.6959 46.51 46.7359C46.51 46.8559 46.51 46.9759 46.51 47.1059C46.51 47.3859 46.51 47.3859 46.57 47.4459C46.63 47.5059 46.69 47.5659 46.74 47.6159C46.77 47.8559 46.75 48.0959 46.76 48.3559C46.84 48.4359 46.92 48.5259 47 48.6159V49.0959C47.08 49.1859 47.17 49.2759 47.25 49.3559C47.25 49.6459 47.25 49.9359 47.25 50.2159C47.25 50.2559 47.25 50.2959 47.24 50.3359C47.16 50.4259 47.06 50.4959 47.01 50.6059C47.01 50.6859 47.01 50.7659 47.01 50.8459C47.01 50.9859 46.9733 51.0926 46.9 51.1659C46.78 51.2759 46.67 51.3959 46.55 51.5159C46.52 51.5859 46.51 51.6659 46.52 51.7459C46.49 51.8159 46.44 51.8759 46.38 51.9359C46.15 52.1659 45.92 52.3959 45.69 52.6259C45.65 52.6259 45.61 52.6459 45.58 52.6459C45.46 52.6459 45.34 52.6459 45.21 52.6459C45.1 52.7059 45.03 52.8059 44.94 52.8859H42.74C42.68 52.8359 42.63 52.7759 42.57 52.7259C42.54 52.6959 42.51 52.6759 42.48 52.6459C42.4 52.6459 42.32 52.6459 42.24 52.6459C42.18 52.5859 42.13 52.5259 42.07 52.4759C42 52.4059 42 52.4159 41.73 52.4159C41.44 52.4159 41.16 52.4159 40.87 52.4159C40.83 52.4159 40.79 52.4159 40.76 52.3959C40.7 52.3459 40.65 52.2759 40.58 52.2259C40.49 52.1459 40.35 52.2059 40.25 52.1359C40.19 52.0859 40.14 52.0159 40.07 51.9659C40.01 51.9259 39.93 51.9259 39.84 51.9259C38.13 51.9259 36.42 51.9259 34.7 51.9259C34.67 51.9259 34.63 51.9559 34.6 51.9759C34.54 52.0259 34.48 52.0859 34.43 52.1459C34.31 52.1759 34.19 52.1659 34.07 52.1659C34.03 52.1659 33.99 52.1659 33.95 52.1659C33.84 52.2259 33.77 52.3259 33.68 52.4059C33.55 52.5359 33.55 52.5359 33.55 52.7159C33.55 52.7559 33.55 52.7959 33.55 52.8359C33.56 52.9259 33.55 53.0059 33.5 53.0659C33.48 53.0959 33.44 53.1159 33.41 53.1459C33.33 53.1459 33.25 53.1459 33.17 53.1459C33.05 53.2659 32.94 53.3759 32.82 53.4959C32.82 53.5759 32.82 53.6559 32.81 53.7359C32.76 53.7959 32.7 53.8559 32.65 53.9159C32.51 54.0559 32.51 54.0559 32.25 54.1259C32.21 54.1259 32.18 54.1559 32.15 54.1759C31.66 54.6659 31.17 55.1559 30.68 55.6459C30.58 55.7459 30.63 55.8659 30.59 55.9759L30.42 56.1459C30.33 56.2359 30.25 56.3159 30.16 56.4059C29.58 56.9859 29.01 57.5559 28.43 58.1359C28.37 58.1959 28.31 58.2559 28.26 58.3059C28.06 58.5059 28.06 58.5159 27.98 58.5159C27.89 58.5159 27.81 58.5159 27.76 58.5659C27.41 58.9059 27.07 59.2559 26.72 59.6059C26.68 59.7159 26.74 59.8459 26.63 59.9359C26.57 59.9859 26.51 60.0459 26.46 60.1059C26.37 60.1959 26.29 60.2759 26.2 60.3659C25.74 60.8259 25.28 61.2859 24.82 61.7459C24.79 61.7759 24.77 61.8059 24.75 61.8359C24.75 61.9159 24.75 61.9959 24.74 62.0759C24.66 62.1659 24.56 62.2359 24.51 62.3459C24.51 62.4259 24.51 62.5059 24.51 62.5859C24.51 62.7259 24.4733 62.8326 24.4 62.9059C24.27 63.0359 24.27 63.0359 24.27 63.2159C24.27 63.8259 24.27 64.436 24.27 65.046C24.27 65.236 24.27 65.2359 24.4 65.3559C24.51 65.4459 24.52 65.5559 24.51 65.6759C24.56 65.7859 24.66 65.8559 24.74 65.9459C24.74 66.0259 24.74 66.1059 24.75 66.186C24.79 66.2459 24.85 66.306 24.91 66.366C24.94 66.396 24.97 66.4259 25 66.4559V66.6959C25.29 66.9859 25.57 67.2759 25.86 67.5559C26.28 67.5559 26.68 67.5559 27.08 67.5559C27.14 67.6159 27.2 67.6759 27.26 67.7359C27.33 67.8059 27.33 67.796 27.6 67.796C28.62 67.796 29.64 67.796 30.66 67.796C30.7 67.796 30.74 67.7959 30.77 67.7759C30.83 67.7259 30.88 67.656 30.95 67.6059C31.04 67.5259 31.18 67.5859 31.28 67.5159C31.34 67.4659 31.39 67.396 31.46 67.3459C31.52 67.3059 31.6 67.3059 31.69 67.3059C32.18 67.3059 32.67 67.3059 33.16 67.3059C33.19 67.3059 33.24 67.2859 33.26 67.256C33.46 67.0259 33.42 67.0659 33.79 67.0659C33.83 67.0659 33.87 67.0659 33.91 67.0659C34.02 67.006 34.09 66.906 34.18 66.826H34.66C34.75 66.7459 34.84 66.656 34.93 66.576C35.05 66.576 35.17 66.576 35.3 66.576C35.34 66.576 35.38 66.576 35.42 66.576C35.48 66.516 35.53 66.4559 35.59 66.4059C35.62 66.3759 35.65 66.3559 35.69 66.3459C35.73 66.3359 35.77 66.3459 35.81 66.3459C35.95 66.3459 36.01 66.226 36.1 66.146C36.2 66.0659 36.34 66.1359 36.43 66.0559C36.58 65.9159 36.72 65.7659 36.86 65.6259C36.93 65.6059 37.01 65.6059 37.1 65.6059C37.17 65.5659 37.22 65.5159 37.28 65.4559C37.42 65.3059 37.57 65.1659 37.71 65.0259C37.76 64.9159 37.7 64.7859 37.8 64.6959C37.86 64.6359 37.92 64.5859 37.97 64.5259C38.06 64.436 38.14 64.3559 38.23 64.2659V64.0059C38.71 63.5259 39.2 63.0359 39.7 62.5359V62.3059C39.7 62.3059 39.76 62.2459 39.79 62.2159C40.11 61.8959 40.42 61.5859 40.74 61.2659C41.64 60.3659 41.64 60.3659 41.65 60.2959C41.65 60.2559 41.65 60.2159 41.65 60.1759C41.65 60.1359 41.66 60.0959 41.69 60.0659C41.83 59.9159 41.98 59.7759 42.12 59.6359C42.14 59.5659 42.15 59.4859 42.14 59.3959C42.18 59.3259 42.23 59.2759 42.29 59.2159C42.72 58.7859 43.16 58.3559 43.59 57.9159C43.6633 57.8426 43.7667 57.7959 43.9 57.7759C43.9 57.7759 43.98 57.7659 44.01 57.7459C44.1 57.6759 44.16 57.5559 44.29 57.5359C44.48 57.5759 44.57 57.4259 44.69 57.3159C44.73 57.3159 44.77 57.2959 44.8 57.2959C45 57.2959 45.21 57.2959 45.41 57.2959C45.52 57.2359 45.59 57.1459 45.68 57.0559H46.16C46.16 57.0559 46.23 56.9959 46.25 56.9759C46.31 56.9259 46.37 56.8659 46.43 56.8059H46.67C46.73 56.7459 46.79 56.6859 46.85 56.6259C46.92 56.5559 46.92 56.5559 47.19 56.5559C47.64 56.5559 48.09 56.5559 48.54 56.5559C48.58 56.5559 48.62 56.5659 48.65 56.5759C48.74 56.6559 48.8 56.7559 48.92 56.7959C49.04 56.7959 49.15 56.8159 49.24 56.9159C49.32 57.0059 49.4 57.0959 49.48 57.1759C49.48 57.6359 49.48 58.0859 49.48 58.5259C49.48 58.5659 49.48 58.6059 49.47 58.6459C49.38 58.7359 49.3 58.8159 49.21 58.9059C49.15 58.9659 49.09 59.0159 49.04 59.0759C48.96 59.1759 49.04 59.3159 48.95 59.4059C48.78 59.5859 48.61 59.7559 48.43 59.9259C48.34 60.0159 48.2 59.9459 48.1 60.0159C47.84 60.2759 47.58 60.5359 47.32 60.7959C47.3 60.8159 47.28 60.8659 47.28 60.8959C47.28 60.9859 47.28 61.0659 47.23 61.1259C47.12 61.2459 47.13 61.2459 47.03 61.5359C46.99 61.6559 46.88 61.7159 46.79 61.8159V62.2959C46.7 62.3859 46.62 62.4759 46.54 62.5659V63.0459C46.39 63.1959 46.25 63.3359 46.11 63.4759C46.05 63.5359 46.05 63.6059 46.05 63.6959C46.05 63.7759 46.01 63.8359 45.93 63.8959C45.82 63.9759 45.8 64.0859 45.8 64.2059C45.8 64.2359 45.78 64.2759 45.75 64.3059C45.7 64.3659 45.62 64.4159 45.58 64.4859C45.54 64.5459 45.54 64.6359 45.55 64.716C45.49 64.826 45.4 64.896 45.31 64.9859C45.31 65.0659 45.31 65.146 45.31 65.226C45.23 65.3159 45.15 65.406 45.06 65.4959V65.976C44.98 66.0659 44.88 66.146 44.82 66.2459C44.82 66.326 44.82 66.4059 44.8 66.4859C44.74 66.5459 44.68 66.5959 44.63 66.6559C44.58 66.7159 44.57 66.7859 44.58 66.8759C44.58 66.9059 44.57 66.9559 44.55 66.9859C44.48 67.0759 44.36 67.1359 44.34 67.2659C44.34 67.3459 44.34 67.4259 44.34 67.506C44.34 67.686 44.34 67.686 44.2 67.8159C44.1267 67.8893 44.09 67.9959 44.09 68.1359C44.09 68.216 44.09 68.2959 44.09 68.3759C44.03 68.4859 43.93 68.556 43.85 68.646C43.85 68.726 43.85 68.8059 43.85 68.8859C43.77 68.9759 43.69 69.0659 43.6 69.1559V69.3859C43.54 69.4459 43.48 69.506 43.42 69.5659C43.39 69.5959 43.38 69.6259 43.35 69.6559C43.35 69.7759 43.35 69.886 43.24 69.976C43.09 70.096 43.1 70.1059 43.1 70.2859C43.1 70.366 43.1 70.4459 43.1 70.5259C43.09 70.6559 42.97 70.716 42.89 70.8059C42.87 70.8359 42.86 70.8759 42.85 70.9159C42.85 71.076 42.85 71.2459 42.85 71.4059C42.85 71.5193 42.8033 71.6226 42.71 71.716C42.59 71.826 42.48 71.9459 42.36 72.0659V72.546C42.28 72.6359 42.19 72.726 42.11 72.8159V73.296C42.02 73.3859 41.93 73.466 41.87 73.5659C41.87 73.646 41.87 73.7259 41.87 73.8059C41.87 73.9459 41.8333 74.0526 41.76 74.1259C41.62 74.2559 41.62 74.256 41.62 74.436C41.62 74.556 41.62 74.6759 41.62 74.8059C41.62 75.0159 41.62 75.0059 41.5 75.1259C41.38 75.2459 41.27 75.3559 41.15 75.476C41.12 75.726 41.1 75.766 40.98 75.896C40.95 75.9259 40.92 75.9559 40.89 75.9859V76.466C40.83 76.5259 40.77 76.586 40.72 76.646C40.69 76.6759 40.67 76.7059 40.64 76.7359C40.64 76.8159 40.64 76.896 40.63 76.976C40.57 77.0359 40.51 77.086 40.46 77.146C40.4 77.216 40.4 77.216 40.4 77.4859C40.4 77.6059 40.4 77.726 40.4 77.8559C40.4 77.896 40.4 77.936 40.37 77.966C40.3 78.0559 40.19 78.116 40.15 78.2459C40.16 78.3759 40.12 78.476 40.03 78.5659C39.91 78.6759 39.8 78.7959 39.68 78.9059C39.66 78.9759 39.66 79.056 39.66 79.146C39.62 79.2059 39.57 79.266 39.5 79.326C39.47 79.3559 39.44 79.3859 39.41 79.4159V79.9059C39.41 79.9059 39.35 79.966 39.33 79.9959C39.28 80.0559 39.22 80.116 39.17 80.1759C39.17 80.256 39.17 80.3359 39.16 80.4159C39.1 80.4759 39.05 80.5359 38.99 80.5859C38.93 80.6459 38.92 80.716 38.93 80.8059C38.93 80.8459 38.93 80.8859 38.9 80.9159C38.83 81.0059 38.72 81.0659 38.68 81.1959C38.72 81.3859 38.58 81.4859 38.47 81.5959C38.44 81.6659 38.43 81.7459 38.44 81.826C38.44 81.946 38.44 82.0659 38.44 82.1959C38.44 82.4159 38.39 82.466 38.17 82.4859C38 82.4959 37.96 82.5459 37.95 82.7059C37.95 82.826 37.95 82.9459 37.95 83.0859C37.87 83.1659 37.79 83.256 37.71 83.3459V83.576C37.63 83.6659 37.54 83.7559 37.47 83.8359C37.47 84.0059 37.48 84.1659 37.46 84.326C37.34 84.446 37.23 84.5559 37.11 84.6759C37.0233 84.7626 36.98 84.8659 36.98 84.9859C36.98 85.2859 36.98 85.2859 36.94 85.3359C36.88 85.3959 36.82 85.4559 36.77 85.506C36.81 85.6359 36.81 85.6359 37.02 85.6559C37.19 85.6759 37.22 85.7159 37.23 85.8759C37.24 86.0859 37.3 86.1359 37.53 86.1359C38.51 86.1359 39.49 86.1359 40.47 86.1359C40.51 86.1359 40.55 86.1259 40.58 86.0959C40.64 86.0459 40.69 85.966 40.76 85.9259C40.87 85.8559 40.99 85.8859 41.11 85.8859C41.28 85.8859 41.28 85.8859 41.42 85.7459C41.4933 85.6726 41.6 85.6359 41.74 85.6359C41.82 85.6359 41.9 85.6359 41.98 85.6359C42.09 85.576 42.16 85.476 42.25 85.396H42.49C42.58 85.3159 42.67 85.226 42.76 85.146C42.84 85.146 42.92 85.146 43 85.146C43.06 85.086 43.12 85.0359 43.17 84.976C43.23 84.916 43.3 84.896 43.39 84.9159C43.55 84.896 43.59 84.8559 43.6 84.686C43.61 84.476 43.67 84.4259 43.9 84.4259C44.1 84.4259 44.31 84.4259 44.51 84.4259C44.7 84.4259 44.71 84.4259 44.82 84.296C44.88 84.226 44.94 84.1759 45.02 84.1759C45.11 84.1759 45.18 84.1759 45.24 84.116C45.3 84.056 45.36 84.0059 45.41 83.9459C45.53 83.9159 45.65 83.9259 45.77 83.9259C45.81 83.9259 45.85 83.9259 45.9 83.9259C45.98 83.8459 46.07 83.766 46.17 83.686H46.41C46.58 83.516 46.75 83.3459 46.93 83.1659C46.99 83.1059 47.05 83.046 47.1 82.9959C47.15 82.9459 47.15 82.9459 47.45 82.9459C47.64 82.9459 47.64 82.9459 47.76 82.8159C48.11 82.466 48.45 82.1259 48.8 81.7759C48.83 81.7459 48.86 81.716 48.9 81.716C49.02 81.716 49.14 81.716 49.27 81.716C49.31 81.716 49.34 81.696 49.38 81.686C49.49 81.576 49.59 81.436 49.78 81.466C49.8333 81.4593 49.9533 81.3593 50.14 81.1659C50.43 80.8759 50.72 80.5859 51.01 80.3059C51.04 80.2759 51.07 80.256 51.11 80.2459C51.39 80.156 51.39 80.156 51.52 80.046C51.55 80.026 51.59 80.006 51.62 80.006C51.75 80.016 51.86 79.9759 51.93 79.8759C51.98 79.8059 52.05 79.7559 52.13 79.7659C52.22 79.7759 52.29 79.7659 52.35 79.7059C52.49 79.5559 52.64 79.4159 52.78 79.2759H53.03C53.26 79.0459 53.49 78.8159 53.72 78.5859C53.74 78.5659 53.79 78.546 53.82 78.546C53.95 78.556 54.05 78.5059 54.13 78.4159C54.24 78.2959 54.24 78.3059 54.45 78.3059C54.53 78.3059 54.61 78.3059 54.69 78.3059C54.8 78.2559 54.88 78.156 54.96 78.076C55.16 77.876 55.36 77.6759 55.57 77.476C55.57 77.436 55.59 77.396 55.59 77.366C55.59 77.2459 55.59 77.1259 55.59 76.9959C55.61 76.966 55.63 76.9259 55.66 76.9059C55.86 76.7059 56.06 76.506 56.26 76.296C56.35 76.206 56.29 76.0659 56.35 75.966C56.41 75.866 56.53 75.8159 56.56 75.686C56.52 75.4959 56.66 75.396 56.77 75.2859C56.79 75.266 56.79 75.216 56.8 75.1759C56.82 75.086 56.8 75.0159 56.74 74.9559C56.68 74.896 56.62 74.836 56.57 74.7859C56.7 74.586 56.91 74.4559 57.04 74.2659C57.06 73.9359 57.03 73.6059 57.06 73.2859C57.12 73.226 57.18 73.1759 57.23 73.116C57.29 73.056 57.29 73.0559 57.29 72.7759C57.29 72.0459 57.29 71.306 57.29 70.576C57.29 70.366 57.29 70.366 57.4 70.256C57.53 70.126 57.53 70.1259 57.53 69.9459C57.53 69.5359 57.53 69.126 57.53 68.726C57.53 68.686 57.51 68.6459 57.49 68.6259C57.29 68.3959 57.29 68.396 57.29 68.216C57.29 68.1359 57.29 68.056 57.29 67.976C57.34 67.866 57.44 67.7959 57.52 67.7059C57.46 67.6059 57.37 67.5359 57.29 67.4459V65.4859C57.29 65.4859 57.23 65.4259 57.2 65.396C57.12 65.306 57.01 65.2359 57.04 65.0959C57.04 64.7659 57.04 64.446 57.04 64.116C57.04 64.076 57.04 64.0359 57.03 64.0059C56.96 63.9159 56.85 63.8659 56.83 63.7459C56.89 63.6859 56.95 63.6359 57 63.5759C57.04 63.5259 57.04 63.5259 57.04 63.2259C57.04 63.0259 57.04 62.8159 57.04 62.6159C57.04 62.5759 57.01 62.5459 57 62.5159C56.75 62.3159 56.8 62.2659 56.8 61.9859C56.8 61.6959 56.8 61.4159 56.8 61.1259C56.8 60.8459 56.8 60.8459 56.74 60.7859C56.68 60.7259 56.62 60.6659 56.57 60.6159C56.62 60.5059 56.72 60.4459 56.8 60.3559V59.6259C56.8 59.6259 56.86 59.5659 56.89 59.5359C56.95 59.4759 57.01 59.4159 57.05 59.3559C57.05 59.2759 57.05 59.1959 57.07 59.1159C57.13 59.0559 57.19 59.0059 57.24 58.9459C57.3 58.8859 57.3 58.8859 57.3 58.6059C57.3 58.2359 57.3 57.8759 57.3 57.5059C57.3 57.4659 57.3 57.4259 57.33 57.3959C57.4 57.3059 57.52 57.2459 57.54 57.1159C57.5 56.9259 57.65 56.8259 57.76 56.7159C57.76 56.6759 57.79 56.6459 57.79 56.6059C57.79 55.9159 57.79 55.2159 57.79 54.5259C57.81 54.4959 57.82 54.4559 57.85 54.4259C58.02 54.2559 58.2 54.0759 58.37 53.9059C58.47 53.8459 58.61 53.9059 58.7 53.8159C58.82 53.7059 58.93 53.5859 59.05 53.4659C59.14 53.3759 59.22 53.2959 59.31 53.2059C59.34 53.1759 59.37 53.1559 59.4 53.1259C59.48 53.1259 59.56 53.1259 59.64 53.1159C59.73 53.0359 59.8 52.9359 59.91 52.8859C60.03 52.8859 60.14 52.8859 60.23 52.7759C60.35 52.6359 60.36 52.6459 60.54 52.6459C60.74 52.6459 60.95 52.6459 61.15 52.6459C61.34 52.6459 61.34 52.6459 61.46 52.7759C61.52 52.8459 61.58 52.9059 61.66 52.8859C61.86 52.8559 61.94 53.0159 62.06 53.1159C62.13 53.1359 62.21 53.1359 62.3 53.1359C62.36 53.1759 62.42 53.2259 62.48 53.2959C62.51 53.3259 62.54 53.3559 62.57 53.3859H62.81C62.92 53.4659 62.94 53.5759 62.94 53.6959C62.94 53.7259 62.96 53.7759 62.99 53.7959C63.13 53.9459 63.28 54.0859 63.42 54.2259C63.42 54.3059 63.42 54.3859 63.42 54.4759C63.53 54.5859 63.64 54.7059 63.76 54.8159C63.88 54.9359 63.89 54.9759 63.93 55.2359C64.07 55.3759 64.22 55.5259 64.36 55.6659C64.38 55.6859 64.39 55.7359 64.4 55.7759C64.4 55.8159 64.4 55.8559 64.4 55.8959C64.4 55.9359 64.42 55.9759 64.45 55.9959C64.71 56.2559 64.97 56.5159 65.23 56.7759C65.34 56.8859 65.36 56.9259 65.4 57.1959C65.52 57.3159 65.62 57.4359 65.75 57.5359C65.85 57.6259 65.88 57.7259 65.87 57.8559C65.89 57.8859 65.9 57.9259 65.92 57.9559C65.97 58.0159 66.03 58.0759 66.09 58.1259C66.11 58.1959 66.12 58.2759 66.11 58.3659C66.17 58.4659 66.27 58.5459 66.35 58.6359V58.8759C66.35 58.8759 66.41 58.9359 66.43 58.9659C66.48 59.0259 66.54 59.0859 66.59 59.1459C66.59 59.2259 66.59 59.3059 66.6 59.3859C66.66 59.4459 66.72 59.4959 66.77 59.5559C66.8 59.5859 66.82 59.6159 66.83 59.6559C66.84 59.6959 66.83 59.7359 66.83 59.7759C66.83 59.9159 66.95 59.9659 67.03 60.0659C67.11 60.1659 67.03 60.3059 67.12 60.3959C67.26 60.5459 67.41 60.6859 67.55 60.8259C67.57 60.8959 67.57 60.9759 67.57 61.0659C67.61 61.1259 67.66 61.1859 67.73 61.2459C67.82 61.3259 67.9 61.4159 67.99 61.5059C68.02 61.5359 68.04 61.5659 68.06 61.5959C68.06 61.6759 68.06 61.7559 68.07 61.8359C68.19 61.9559 68.3 62.0659 68.42 62.1859C68.55 62.3159 68.55 62.3159 68.55 62.4959C68.55 62.5359 68.55 62.5759 68.55 62.6159C68.55 62.8059 68.55 62.8059 68.68 62.9259C68.76 63.0059 68.8 63.1126 68.8 63.2459C68.8 63.3259 68.8 63.4059 68.8 63.4859C68.85 63.5959 68.95 63.6759 69.03 63.7559C69.13 63.8659 69.14 63.8659 69.34 63.8959C69.42 63.9059 69.48 63.9459 69.53 64.0159V64.2659C69.67 64.4059 69.82 64.5459 69.96 64.6959C70.05 64.7859 69.99 64.9259 70.05 65.0259C70.09 65.0959 70.16 65.1459 70.22 65.1959C70.31 65.2859 70.39 65.366 70.48 65.4559C70.51 65.5259 70.52 65.6059 70.51 65.686C70.56 65.796 70.66 65.8759 70.74 65.9559C71.08 66.3059 71.43 66.646 71.78 66.9959C71.81 67.0259 71.84 67.046 71.87 67.076C72.16 67.076 72.16 67.076 72.2 67.1759C72.23 67.2459 72.23 67.3259 72.23 67.4059C72.23 67.4859 72.23 67.5659 72.23 67.646C72.28 67.756 72.38 67.8359 72.46 67.9159C72.69 68.146 72.92 68.3759 73.15 68.6059C73.18 68.6359 73.2 68.6759 73.2 68.7059C73.2 68.866 73.2 69.0359 73.2 69.1959C73.2 69.3959 73.2 69.4059 73.32 69.5159C73.42 69.6059 73.45 69.7059 73.45 69.8359C73.45 69.9059 73.46 69.9059 73.75 70.1959C73.92 70.3659 74.1 70.546 74.27 70.716C74.33 70.7759 74.39 70.826 74.44 70.8859C74.53 71.006 74.65 70.9859 74.77 70.9859C74.87 71.0559 74.95 71.146 75.04 71.226H75.53C75.64 71.336 75.76 71.4559 75.87 71.576C75.9633 71.6759 76.0667 71.7226 76.18 71.716C76.51 71.716 76.83 71.716 77.16 71.716C77.2 71.716 77.23 71.696 77.27 71.686C77.38 71.576 77.48 71.436 77.67 71.466C77.7233 71.4593 77.8433 71.3593 78.03 71.1659C78.38 70.8159 78.72 70.4759 79.07 70.1259V69.6359C79.21 69.4959 79.35 69.3459 79.5 69.2059C79.56 69.146 79.58 69.0759 79.56 68.9859C79.56 68.9459 79.56 68.9059 79.58 68.8759C79.65 68.7859 79.76 68.7259 79.8 68.5959C79.76 68.4059 79.9 68.3059 80.01 68.1959C80.04 68.1259 80.05 68.0559 80.04 67.966C80.04 67.5559 80.04 67.146 80.04 66.7459C80.04 66.716 80.07 66.6759 80.09 66.646C80.23 66.4959 80.38 66.3559 80.52 66.2059V65.966C80.58 65.906 80.64 65.8459 80.69 65.7859C80.72 65.756 80.74 65.7259 80.77 65.6959C80.77 65.6159 80.77 65.5359 80.76 65.4559C80.7 65.396 80.64 65.3459 80.59 65.2859C80.53 65.226 80.53 65.2159 80.53 64.9459C80.53 64.7859 80.53 64.616 80.53 64.4559C80.53 64.2459 80.53 64.2459 80.64 64.1359C80.77 64.006 80.77 64.0059 80.77 63.8259C80.77 63.4159 80.77 63.0059 80.77 62.6059C80.77 62.5659 80.75 62.5259 80.73 62.5059C80.68 62.4459 80.62 62.3859 80.56 62.3359C80.51 62.2259 80.53 62.0959 80.53 61.9859C80.53 60.7259 80.53 59.4559 80.53 58.1959C80.53 57.9059 80.53 57.9059 80.48 57.8559C80.42 57.7959 80.36 57.7359 80.31 57.6859C80.28 57.5259 80.3 57.3659 80.29 57.1959C80.21 57.1159 80.13 57.0259 80.05 56.9359V56.4559C79.97 56.3659 79.88 56.2759 79.8 56.1959C79.8 55.9459 79.8 55.7059 79.79 55.4659C79.71 55.3759 79.61 55.3059 79.56 55.1959V54.9559C79.56 54.9559 79.56 54.8759 79.56 54.8359C79.56 54.7959 79.56 54.7559 79.53 54.7259C79.46 54.6359 79.35 54.5759 79.31 54.4459C79.35 54.2559 79.21 54.1559 79.1 54.0459C79.07 53.9759 79.07 53.8959 79.07 53.8159C79.07 53.6559 79.07 53.4859 79.07 53.3259C79.07 53.0459 79.07 53.0459 79.01 52.9859C78.95 52.9259 78.89 52.8659 78.84 52.8159C78.82 52.6659 78.79 52.5159 78.75 52.4859C78.55 52.2859 78.35 52.0859 78.15 51.8759C78.12 51.8459 78.11 51.8159 78.09 51.7759C78.09 51.6859 78.1 51.6059 78.06 51.5459C78.02 51.4759 77.94 51.4359 77.89 51.3659C77.84 51.3059 77.84 51.2259 77.84 51.1359C77.84 51.0559 77.78 51.0059 77.72 50.9459C77.6 50.8359 77.49 50.7159 77.37 50.6059C77.36 50.4459 77.32 50.3159 77.28 50.2759C76.88 49.8759 76.47 49.4659 76.07 49.0659C76.04 49.0359 76.01 49.0259 75.97 49.0059C75.89 49.0059 75.8 49.0159 75.74 48.9759C75.67 48.9359 75.63 48.8659 75.56 48.8059C75.53 48.7859 75.49 48.7559 75.46 48.7559C75.37 48.7559 75.29 48.7559 75.23 48.7159C75.14 48.6459 75.08 48.5159 74.95 48.5159C74.86 48.5159 74.79 48.5159 74.73 48.4559C74.67 48.3959 74.61 48.3459 74.56 48.2859C74.44 48.2559 74.32 48.2659 74.2 48.2659C74.16 48.2659 74.12 48.2659 74.07 48.2659C73.99 48.1859 73.9 48.1059 73.81 48.0259H73.58C73.49 47.9459 73.4 47.8559 73.32 47.7859C72.91 47.7859 72.5 47.7859 72.1 47.7859C72.04 47.7259 71.98 47.6659 71.92 47.6059C71.85 47.5459 71.85 47.5459 71.58 47.5459C71.5 47.5459 71.42 47.5459 71.34 47.5459C71.2 47.5459 71.0933 47.5093 71.02 47.4359C70.89 47.2959 70.89 47.3059 70.71 47.3059C70.42 47.3059 70.14 47.3059 69.85 47.3059C69.66 47.3059 69.65 47.3059 69.54 47.1759C69.47 47.0959 69.42 47.0659 69.36 47.1159C69.3 47.1759 69.24 47.2359 69.17 47.3059H68.21C68.13 47.3859 68.04 47.4659 67.95 47.5459H67.23C67.14 47.6259 67.05 47.7159 66.96 47.7959H66.48C66.39 47.8859 66.31 47.9859 66.2 48.0359C66.08 48.0359 65.97 48.0359 65.88 48.1459C65.76 48.2859 65.75 48.2759 65.57 48.2759C65.16 48.2759 64.75 48.2759 64.35 48.2759C64.31 48.2759 64.27 48.2959 64.25 48.3159C64.19 48.3659 64.13 48.4259 64.08 48.4859C63.97 48.5359 63.84 48.5159 63.73 48.5159C63.61 48.5159 63.49 48.5159 63.36 48.5159C63.08 48.5159 63.08 48.5159 63.02 48.5759C62.96 48.6359 62.9 48.6959 62.85 48.7459C62.74 48.6959 62.68 48.5959 62.58 48.5159C62.55 48.5459 62.53 48.5759 62.5 48.6059C62.41 48.6859 62.35 48.7959 62.2 48.7659C61.87 48.7659 61.55 48.7659 61.22 48.7659C61.18 48.7659 61.14 48.7659 61.1 48.7759C60.89 48.9959 60.89 49.0059 60.83 49.0059C60.71 49.0059 60.6 49.0059 60.51 49.1159C60.39 49.2559 60.38 49.2459 60.2 49.2459C59.96 49.2459 59.71 49.2459 59.47 49.2459C59.43 49.2459 59.39 49.2659 59.37 49.2859C59.14 49.4859 59.14 49.4859 58.96 49.4859C58.88 49.4859 58.8 49.4859 58.72 49.4859C58.61 49.5359 58.54 49.6359 58.45 49.7159C58.41 49.7159 58.37 49.7259 58.33 49.7259C58.04 49.7259 57.76 49.7259 57.47 49.7259H57.23C57.13 49.7959 57.05 49.8859 56.96 49.9659H56.72C56.72 49.9659 56.66 50.0259 56.63 50.0559C56.57 50.1059 56.51 50.1659 56.45 50.2159C56.37 50.2159 56.29 50.2159 56.21 50.2259C56.15 50.2859 56.09 50.3459 56.04 50.3959C55.8467 50.5893 55.7267 50.6893 55.68 50.6959C55.49 50.6559 55.39 50.8059 55.28 50.9159C55.24 50.9159 55.21 50.9459 55.17 50.9459C54.97 50.9459 54.76 50.9459 54.56 50.9459C54.28 50.9459 54.28 50.9459 54.22 51.0059C54.16 51.0659 54.1 51.1259 54.04 51.1859H53.55C53.55 51.1859 53.49 51.1459 53.47 51.1159C53.41 51.0559 53.35 50.9959 53.3 50.9459C53.18 50.8259 53.18 50.8259 53.18 50.6259C53.18 50.5259 53.2533 50.3526 53.4 50.1059C53.4 50.1059 53.42 50.0259 53.42 49.9959C53.42 49.8759 53.42 49.7559 53.42 49.6259C53.44 49.5959 53.46 49.5559 53.49 49.5359C53.69 49.3359 53.89 49.1359 54.1 48.9259C54.16 48.8659 54.18 48.7959 54.16 48.7059C54.16 48.6659 54.16 48.6259 54.13 48.5959C54.08 48.5359 54.02 48.4759 53.96 48.4259C53.89 48.3559 53.89 48.1659 53.96 48.0959C54.02 48.0359 54.07 47.9759 54.13 47.9259C54.18 47.8159 54.16 47.6859 54.16 47.5759C54.16 46.8859 54.16 46.1859 54.16 45.4959C54.18 45.4659 54.19 45.4259 54.21 45.3959C54.35 45.2459 54.5 45.1059 54.64 44.9559V44.2259C54.72 44.1359 54.81 44.0459 54.89 43.9659C54.89 43.5959 54.89 43.2259 54.89 42.8559C54.89 42.8159 54.89 42.7759 54.88 42.7359C54.82 42.6759 54.76 42.6259 54.71 42.5659C54.65 42.5059 54.65 42.5059 54.65 42.2259C54.65 41.4959 54.65 40.7559 54.65 40.0259C54.65 39.8159 54.65 39.8159 54.76 39.7059C54.89 39.5759 54.89 39.5759 54.89 39.3959C54.89 39.0659 54.89 38.7459 54.89 38.4159C54.89 38.3759 54.91 38.3359 54.93 38.3159C55.18 38.0859 55.13 38.1259 55.13 37.7859C55.13 37.3359 55.13 36.8859 55.13 36.4359C55.13 36.1459 55.13 36.1459 55.08 36.0959C55.02 36.0359 54.96 35.9759 54.91 35.9259C54.89 35.8559 54.89 35.7759 54.89 35.6859C54.89 34.9559 54.89 34.2159 54.89 33.4859C54.89 33.2159 54.89 33.2159 54.82 33.1459C54.76 33.0859 54.7 33.0259 54.65 32.9759V31.5159C54.57 31.4259 54.48 31.3359 54.4 31.2459V30.7659C54.34 30.7059 54.28 30.6459 54.22 30.5859C54.16 30.5259 54.16 30.5259 54.16 30.2459C54.16 30.0859 54.16 29.9159 54.16 29.7559C54.16 29.5459 54.16 29.5459 54.05 29.4359C53.92 29.3059 53.92 29.3059 53.92 29.1259C53.92 29.0459 53.92 28.9659 53.92 28.8859C53.9 28.7559 53.78 28.6959 53.71 28.6059C53.69 28.5759 53.68 28.5359 53.68 28.4959C53.68 28.2959 53.68 28.0859 53.68 27.8859C53.68 27.6059 53.68 27.6059 53.62 27.5459C53.56 27.4859 53.5 27.4259 53.45 27.3759C53.45 27.3359 53.43 27.2959 53.43 27.2559C53.43 27.0559 53.43 26.8459 53.43 26.6359C53.35 26.5559 53.27 26.4659 53.19 26.3759V25.8859C53.19 25.8859 53.13 25.8359 53.1 25.8059C53.05 25.7459 52.99 25.6859 52.94 25.6259C52.94 25.5459 52.94 25.4659 52.93 25.3859C52.85 25.2959 52.75 25.2259 52.7 25.1159C52.7 25.0359 52.7 24.9559 52.7 24.8759C52.7 24.7359 52.6633 24.6293 52.59 24.5559C52.46 24.4259 52.46 24.4259 52.46 24.2459C52.46 24.1659 52.46 24.0859 52.46 24.0059C52.46 23.9459 52.46 23.9459 52.25 23.7259C51.96 23.4359 51.67 23.1459 51.38 22.8659C51.26 22.7459 51.26 22.7459 51.24 22.5559C51.24 22.4759 51.2 22.4059 51.11 22.3559H50.63C50.55 22.3059 50.5 22.2459 50.5 22.1759C50.5 22.0459 50.46 21.9459 50.37 21.8659C50.25 21.7559 50.14 21.6359 50.02 21.5259C50.02 21.4459 50.02 21.3659 50.01 21.2859C49.96 21.2259 49.9 21.1659 49.85 21.1059C49.82 21.0759 49.79 21.0559 49.77 21.0259C49.77 20.7359 49.77 20.7359 49.68 20.6859C49.61 20.6459 49.54 20.6359 49.45 20.6559C49.42 20.6359 49.38 20.6259 49.35 20.6059C49.11 20.3859 48.9 20.1359 48.65 19.9259C48.57 19.9259 48.49 19.9259 48.41 19.9159C48.32 19.8359 48.25 19.7359 48.14 19.6859H47.9C47.9 19.6859 47.82 19.6859 47.78 19.6859C47.74 19.6859 47.7 19.6859 47.67 19.7159C47.58 19.7859 47.52 19.8959 47.39 19.9359C47.26 19.9259 47.16 19.9659 47.07 20.0559C46.96 20.1759 46.84 20.2859 46.73 20.4059C46.6367 20.4993 46.59 20.6026 46.59 20.7159C46.59 20.9159 46.59 21.1259 46.59 21.3259C46.59 21.5259 46.59 21.5259 46.47 21.6459C46.34 21.7659 46.34 21.7659 46.34 21.9659C46.34 22.0459 46.35 22.1359 46.34 22.2059C46.32 22.3259 46.2 22.3959 46.12 22.4859C46.15 22.6059 46.26 22.6559 46.34 22.7559V26.8959C46.34 26.8959 46.39 26.9559 46.42 26.9859C46.48 27.0459 46.53 27.1059 46.59 27.1559V27.3959C46.53 27.4559 46.47 27.5159 46.42 27.5759C46.4 27.5959 46.39 27.6359 46.37 27.6659C46.43 27.7259 46.49 27.7759 46.54 27.8359C46.59 27.8959 46.59 27.8959 46.59 28.1859C46.59 28.5159 46.59 28.8359 46.59 29.1659C46.59 29.3659 46.59 29.3659 46.71 29.4859C46.84 29.6059 46.83 29.6059 46.83 29.8059C46.83 30.3759 46.83 30.9459 46.83 31.5159C46.83 31.5459 46.85 31.5859 46.88 31.6159C46.93 31.6759 46.99 31.7359 47.05 31.7859C47.09 31.9059 47.07 32.0259 47.07 32.1459C47.07 32.5159 47.07 32.8759 47.07 33.2459C47.07 33.5159 47.07 33.5159 47.13 33.5859C47.19 33.6459 47.25 33.7059 47.31 33.7659V34.2459C47.31 34.2459 47.37 34.3159 47.39 34.3459C47.45 34.4059 47.5 34.4659 47.55 34.5159V34.7559C47.49 34.8159 47.43 34.8759 47.37 34.9359C47.34 34.9659 47.32 34.9959 47.31 35.0359C47.3 35.0759 47.31 35.1159 47.31 35.1559C47.31 35.2459 47.35 35.2959 47.42 35.3559C47.53 35.4559 47.53 35.4559 47.56 35.6659C47.57 35.7459 47.61 35.8059 47.68 35.8659C47.81 35.9859 47.81 35.9859 47.8 36.1759C47.8 36.4159 47.8 36.6659 47.8 36.9059C47.8 36.9359 47.82 36.9759 47.85 37.0059C47.9 37.0659 47.96 37.1259 48.02 37.1759C48.05 37.2959 48.04 37.4159 48.04 37.5359C48.04 37.6559 48.04 37.7759 48.04 37.9059C48.1 38.0159 48.2 38.0859 48.28 38.1759C48.2 38.2659 48.12 38.3459 48.05 38.4359V39.4159C48.11 39.4759 48.17 39.5359 48.23 39.5959C48.29 39.6559 48.31 39.7259 48.29 39.8159C48.29 39.8559 48.28 39.8959 48.27 39.9259C48.15 40.0459 48.05 40.1659 47.92 40.2659C47.82 40.3559 47.79 40.4559 47.8 40.5859C47.8 40.6159 47.78 40.6659 47.75 40.6859C47.63 40.7959 47.54 40.9359 47.39 41.0059C47.27 41.0059 47.16 41.0159 47.07 41.1259C46.95 41.2659 46.94 41.2559 46.76 41.2559C46.64 41.2559 46.52 41.2559 46.39 41.2559C46.21 41.2559 46.21 41.2559 46.08 41.1259C45.88 40.9259 45.68 40.7159 45.49 40.5259H45.23C44.76 40.0559 44.76 40.0459 44.7 40.0359C44.66 40.0359 44.62 40.0359 44.58 40.0359C44.54 40.0359 44.5 40.0359 44.47 40.0059C44.35 39.8959 44.23 39.7859 44.13 39.6559C44.13 39.5759 44.13 39.4959 44.12 39.4159C44.04 39.3259 43.94 39.2559 43.89 39.1459C43.89 39.0659 43.89 38.9859 43.89 38.9059C43.89 38.6959 43.89 38.6959 43.78 38.5859C43.55 38.3559 43.32 38.1259 43.09 37.8959C43 37.8059 42.86 37.8759 42.76 37.8059C42.69 37.7559 42.64 37.6959 42.59 37.6359L42.33 37.3759C42.24 37.2859 42.16 37.2059 42.07 37.1159C41.87 36.9159 41.67 36.7159 41.46 36.5059C41.46 36.4659 41.45 36.4259 41.45 36.3859C41.45 36.3459 41.45 36.3059 41.45 36.2659C41.35 36.1359 41.23 36.0259 41.12 35.9159C41.06 35.8559 41.01 35.7959 40.96 35.7359C40.96 35.6559 40.96 35.5759 40.94 35.4959C40.74 35.2959 40.54 35.0859 40.33 34.8959H39.85C39.73 34.7759 39.61 34.6559 39.5 34.5459C39.5 34.4659 39.5 34.3859 39.49 34.3059C39.44 34.2459 39.38 34.1859 39.33 34.1259C39.3 34.0959 39.27 34.0759 39.25 34.0559C39.25 34.0059 39.25 33.9559 39.25 33.9159C39.27 33.7559 39.21 33.7059 39.05 33.6759C38.96 33.6959 38.89 33.6759 38.83 33.6259C38.8 33.5959 38.76 33.4459 38.74 33.2959C38.62 33.1759 38.51 33.0559 38.39 32.9559C38.29 32.8659 38.26 32.7659 38.26 32.6359C38.26 32.6059 38.24 32.5659 38.21 32.5359C38.16 32.4759 38.09 32.4259 38.04 32.3559C38 32.2959 38 32.2059 38.01 32.1259C37.96 32.0159 37.86 31.9459 37.78 31.8559C37.78 31.7759 37.78 31.6959 37.77 31.6159C37.62 31.4259 37.42 31.2859 37.28 31.0859C37.28 31.0059 37.28 30.9259 37.28 30.8359C37.28 30.6893 37.2433 30.5826 37.17 30.5159C37.08 30.4259 37 30.3459 36.91 30.2559H36.66C36.61 30.2059 36.55 30.1459 36.5 30.0859C36.41 29.9959 36.33 29.9159 36.24 29.8259C36.15 29.7359 36.01 29.7859 35.91 29.7359L34.87 28.6959C34.81 28.5959 34.87 28.4559 34.78 28.3659C34.03 27.6159 33.28 26.8659 32.53 26.1159C32.49 26.1159 32.46 26.0959 32.42 26.0959C32.18 26.0659 32.14 26.0259 32.14 25.8159C32.14 25.7359 32.14 25.6559 32.14 25.5759C32.14 25.5159 32.0733 25.4226 31.94 25.2959C31.77 25.1259 31.59 24.9459 31.42 24.7759C31.4 24.7059 31.4 24.6259 31.4 24.5359C31.36 24.4759 31.3 24.4159 31.24 24.3559C31.13 24.2459 31 24.1359 30.91 24.0059L30.88 23.9059ZM36.87 86.1959C36.74 86.3159 36.74 86.3159 36.87 86.436C37 86.3159 37 86.3159 36.87 86.1959Z" fill="#0420B5"/>
</svg>
